<?xml version="1.0" encoding="utf-8"?>
<!-- Generator: Adobe Illustrator 23.0.1, SVG Export Plug-In . SVG Version: 6.00 Build 0)  -->
<svg version="1.1" id="Layer_1" xmlns="http://www.w3.org/2000/svg" xmlns:xlink="http://www.w3.org/1999/xlink" x="0px" y="0px"
	 viewBox="0 0 222.8 222.8" style="enable-background:new 0 0 222.8 222.8;" xml:space="preserve">
<style type="text/css">
	.st4{fill:#9c9c9c;}
    .st5{fill:#9c9c9c;}
    .st6{fill:#fff144;}

    .st12{fill:#fff144;}
    .st0{fill:#ffa40d;}
    .st1{fill:#fff144;}
    .st2{fill:#9c9c9c;}
    .st15{fill:#9c9c9c;}

    .st11{fill:#fff144;}
    .st3{fill:#ffa40d;}
    .st17{fill:#fff144;}
    .st19{fill:#fff144;}
	.st14{fill:#07a42e;}

	.st10{fill:#9c9c9c;}
	.st16{fill:#0025ff;}
	.st18{fill:#0025ff;}
	.st20{fill:#fff144;}
    .st13{fill:#07a42e;}

    .st7{fill:#fff144;}
	.st8{fill:#fff144;}
	.st9{fill:#9c9c9c;}
</style>
<path d="M214.5,30.9h-22.6V8.3c0-4.6-3.7-8.3-8.3-8.3H39.2c-4.6,0-8.3,3.7-8.3,8.3v22.6H8.3c-4.6,0-8.3,3.7-8.3,8.3v144.4
	c0,4.6,3.7,8.3,8.3,8.3h22.6v22.6c0,4.6,3.7,8.3,8.3,8.3h144.4c4.6,0,8.3-3.7,8.3-8.3v-22.6h22.6c4.6,0,8.3-3.7,8.3-8.3V39.2
	C222.7,34.6,219,30.9,214.5,30.9z M184.7,143.8c-0.1,0-0.2,0-0.2,0S184.6,143.8,184.7,143.8z"/>
<g>
	<path class="st0" d="M80.5,74.9c0,3.1-2.6,5.7-5.7,5.7h-34c-3.1,0-5.7-2.6-5.7-5.7v-34c0-3.1,2.6-5.7,5.7-5.7h34
		c3.1,0,5.7,2.6,5.7,5.7V74.9z"/>
	<path class="st1" d="M134.1,74.9c0,3.1-2.6,5.7-5.7,5.7h-34c-3.1,0-5.7-2.6-5.7-5.7v-34c0-3.1,2.6-5.7,5.7-5.7h34
		c3.1,0,5.7,2.6,5.7,5.7V74.9z"/>
	<path class="st2" d="M187.6,74.9c0,3.1-2.6,5.7-5.7,5.7h-34c-3.1,0-5.7-2.6-5.7-5.7v-34c0-3.1,2.6-5.7,5.7-5.7h34
		c3.1,0,5.7,2.6,5.7,5.7V74.9z"/>
	<path class="st3" d="M40.8,134.1c-3.1,0-5.7-2.6-5.7-5.7v-34c0-3.1,2.6-5.7,5.7-5.7h34c3.1,0,5.7,2.6,5.7,5.7v34
		c0,3.1-2.6,5.7-5.7,5.7H40.8z"/>
	<path class="st4" d="M80.5,23c0,2.2-1.8,4-4,4H39.2c-2.2,0-4-1.8-4-4V8.3c0-2.2,1.8-4,4-4h37.3c2.2,0,4,1.8,4,4V23z"/>
	<path class="st5" d="M134.1,23c0,2.2-1.8,4-4,4H92.8c-2.2,0-4-1.8-4-4V8.3c0-2.2,1.8-4,4-4h37.3c2.2,0,4,1.8,4,4V23z"/>
	<path class="st6" d="M187.6,23c0,2.2-1.8,4-4,4h-37.3c-2.2,0-4-1.8-4-4V8.3c0-2.2,1.8-4,4-4h37.3c2.2,0,4,1.8,4,4V23z"/>
	<path class="st7" d="M80.5,214.5c0,2.2-1.8,4-4,4H39.2c-2.2,0-4-1.8-4-4v-14.7c0-2.2,1.8-4,4-4h37.3c2.2,0,4,1.8,4,4V214.5z"/>
	<path class="st8" d="M134.1,214.5c0,2.2-1.8,4-4,4H92.8c-2.2,0-4-1.8-4-4v-14.7c0-2.2,1.8-4,4-4h37.3c2.2,0,4,1.8,4,4V214.5z"/>
	<path class="st9" d="M187.6,214.5c0,2.2-1.8,4-4,4h-37.3c-2.2,0-4-1.8-4-4v-14.7c0-2.2,1.8-4,4-4h37.3c2.2,0,4,1.8,4,4V214.5z"/>
	<path class="st10" d="M23,142.3c2.2,0,4,1.8,4,4v37.3c0,2.2-1.8,4-4,4H8.3c-2.2,0-4-1.8-4-4v-37.3c0-2.2,1.8-4,4-4H23z"/>
	<path class="st11" d="M23,88.7c2.2,0,4,1.8,4,4V130c0,2.2-1.8,4-4,4H8.3c-2.2,0-4-1.8-4-4V92.7c0-2.2,1.8-4,4-4
		C8.3,88.7,23,88.7,23,88.7z"/>
	<path class="st12" d="M23,35.2c2.2,0,4,1.8,4,4v37.3c0,2.2-1.8,4-4,4H8.3c-2.2,0-4-1.8-4-4V39.2c0-2.2,1.8-4,4-4H23z"/>
	<path class="st13" d="M214.5,142.3c2.2,0,4,1.8,4,4v37.3c0,2.2-1.8,4-4,4h-14.7c-2.2,0-4-1.8-4-4v-37.3c0-2.2,1.8-4,4-4H214.5z"/>
	<path class="st14" d="M214.5,88.7c2.2,0,4,1.8,4,4V130c0,2.2-1.8,4-4,4h-14.7c-2.2,0-4-1.8-4-4V92.7c0-2.2,1.8-4,4-4
		C199.8,88.7,214.5,88.7,214.5,88.7z"/>
	<path class="st15" d="M214.5,35.2c2.2,0,4,1.8,4,4v37.3c0,2.2-1.8,4-4,4h-14.7c-2.2,0-4-1.8-4-4V39.2c0-2.2,1.8-4,4-4H214.5z"/>
	<path class="st16" d="M40.8,187.6c-3.1,0-5.7-2.6-5.7-5.7v-34c0-3.1,2.6-5.7,5.7-5.7h34c3.1,0,5.7,2.6,5.7,5.7v34
		c0,3.1-2.6,5.7-5.7,5.7H40.8z"/>
	<path class="st17" d="M94.4,134.1c-3.1,0-5.7-2.6-5.7-5.7v-34c0-3.1,2.6-5.7,5.7-5.7h34c3.1,0,5.7,2.6,5.7,5.7v34
		c0,3.1-2.6,5.7-5.7,5.7H94.4z"/>
	<path class="st18" d="M94.4,187.6c-3.1,0-5.7-2.6-5.7-5.7v-34c0-3.1,2.6-5.7,5.7-5.7h34c3.1,0,5.7,2.6,5.7,5.7v34
		c0,3.1-2.6,5.7-5.7,5.7H94.4z"/>
	<path class="st19" d="M147.9,134.1c-3.1,0-5.7-2.6-5.7-5.7v-34c0-3.1,2.6-5.7,5.7-5.7h34c3.1,0,5.7,2.6,5.7,5.7v34
		c0,3.1-2.6,5.7-5.7,5.7H147.9z"/>
	<path class="st20" d="M147.9,187.6c-3.1,0-5.7-2.6-5.7-5.7v-34c0-3.1,2.6-5.7,5.7-5.7h34c3.1,0,5.7,2.6,5.7,5.7v34
		c0,3.1-2.6,5.7-5.7,5.7H147.9z"/>
</g>
</svg>
