<?xml version="1.0" encoding="utf-8"?>
<!-- Generator: Adobe Illustrator 23.0.1, SVG Export Plug-In . SVG Version: 6.00 Build 0)  -->
<svg version="1.1" id="Layer_1" xmlns="http://www.w3.org/2000/svg" xmlns:xlink="http://www.w3.org/1999/xlink" x="0px" y="0px"
	 viewBox="0 0 170 170" style="enable-background:new 0 0 170 170;" xml:space="preserve">
<style type="text/css">
    .st3{fill:#fff144;}
	.st4{fill:#ea0600;}

    .st8{fill:#ffa40d;}
	.st0{fill:#0025ff;}
	.st1{fill:#07a42e;}
    .st11{fill:#fff144;}

    .st7{fill:#0025ff;}
    .st12{fill:#fff144;}
    .st2{fill:#ffa40d;}
	.st9{fill:#07a42e;}

    .st5{fill:#ea0600;}
	.st6{fill:#fff144;}
</style>
<path d="M161.7,31H139V8.3c0-4.6-3.7-8.3-8.3-8.3H39.3C34.7,0,31,3.7,31,8.3V31H8.3C3.7,31,0,34.7,0,39.3v91.3
	c0,4.6,3.7,8.3,8.3,8.3H31v22.7c0,4.6,3.7,8.3,8.3,8.3h91.3c4.6,0,8.3-3.7,8.3-8.3V139h22.7c4.6,0,8.3-3.7,8.3-8.3V39.3
	C170,34.7,166.3,31,161.7,31z M131.8,90.6c-0.1,0-0.2,0-0.2,0C131.6,90.6,131.7,90.6,131.8,90.6z"/>
<g>
	<path class="st0" d="M80.9,75.2c0,3.1-2.6,5.7-5.7,5.7H41c-3.1,0-5.7-2.6-5.7-5.7V41c0-3.1,2.6-5.7,5.7-5.7h34.2
		c3.1,0,5.7,2.6,5.7,5.7V75.2z"/>
	<path class="st1" d="M134.7,75.2c0,3.1-2.6,5.7-5.7,5.7H94.8c-3.1,0-5.7-2.6-5.7-5.7V41c0-3.1,2.6-5.7,5.7-5.7H129
		c3.1,0,5.7,2.6,5.7,5.7V75.2z"/>
	<path class="st2" d="M41,134.7c-3.1,0-5.7-2.6-5.7-5.7V94.8c0-3.1,2.6-5.7,5.7-5.7h34.2c3.1,0,5.7,2.6,5.7,5.7V129
		c0,3.1-2.6,5.7-5.7,5.7H41z"/>
	<path class="st3" d="M80.9,23c0,2.2-1.8,4-4,4H39.3c-2.2,0-4-1.8-4-4V8.3c0-2.2,1.8-4,4-4h37.5c2.2,0,4,1.8,4,4V23z"/>
	<path class="st4" d="M134.7,23c0,2.2-1.8,4-4,4H93.1c-2.2,0-4-1.8-4-4V8.3c0-2.2,1.8-4,4-4h37.5c2.2,0,4,1.8,4,4V23z"/>
	<path class="st5" d="M80.9,161.7c0,2.2-1.8,4-4,4H39.3c-2.2,0-4-1.8-4-4V147c0-2.2,1.8-4,4-4h37.5c2.2,0,4,1.8,4,4V161.7z"/>
	<path class="st6" d="M134.7,161.7c0,2.2-1.8,4-4,4H93.1c-2.2,0-4-1.8-4-4V147c0-2.2,1.8-4,4-4h37.5c2.2,0,4,1.8,4,4V161.7z"/>
	<path class="st7" d="M23,89.1c2.2,0,4,1.8,4,4v37.5c0,2.2-1.8,4-4,4H8.3c-2.2,0-4-1.8-4-4V93.1c0-2.2,1.8-4,4-4H23z"/>
	<path class="st8" d="M23,35.3c2.2,0,4,1.8,4,4v37.5c0,2.2-1.8,4-4,4H8.3c-2.2,0-4-1.8-4-4V39.3c0-2.2,1.8-4,4-4H23z"/>
	<path class="st9" d="M161.7,89.1c2.2,0,4,1.8,4,4v37.5c0,2.2-1.8,4-4,4H147c-2.2,0-4-1.8-4-4V93.1c0-2.2,1.8-4,4-4H161.7z"/>
	<path class="st11" d="M161.7,35.3c2.2,0,4,1.8,4,4v37.5c0,2.2-1.8,4-4,4H147c-2.2,0-4-1.8-4-4V39.3c0-2.2,1.8-4,4-4H161.7z"/>
	<path class="st12" d="M94.8,134.7c-3.1,0-5.7-2.6-5.7-5.7V94.8c0-3.1,2.6-5.7,5.7-5.7H129c3.1,0,5.7,2.6,5.7,5.7V129
		c0,3.1-2.6,5.7-5.7,5.7H94.8z"/>
</g>
</svg>
