<svg
    xmlns="http://www.w3.org/2000/svg"
    viewBox="0 0 257 292"
    id="vector">
    <path
        id="path"
        d="M 257.43 211.98 L 257.43 80.65 C 257.433 78.016 256.742 75.428 255.427 73.146 C 254.112 70.864 252.22 68.969 249.94 67.65 L 136.2 1.98 C 133.922 0.658 131.334 -0.039 128.7 -0.039 C 126.066 -0.039 123.478 0.658 121.2 1.98 L 7.49 67.68 C 5.21 68.999 3.318 70.894 2.003 73.176 C 0.688 75.458 -0.003 78.046 0 80.68 L 0 211.98 C -0.003 214.614 0.688 217.202 2.003 219.484 C 3.318 221.766 5.21 223.661 7.49 224.98 L 121.23 290.65 C 123.51 291.966 126.097 292.66 128.73 292.66 C 131.363 292.66 133.95 291.966 136.23 290.65 L 249.94 224.98 C 252.22 223.661 254.112 221.766 255.427 219.484 C 256.742 217.202 257.433 214.614 257.43 211.98 Z"
        fill="#000000"/>
    <path
        id="path_1"
        d="M 41.2 104.98 L 41.2 134.67 C 41.2 138.33 38.94 140.04 36.2 138.45 L 8.96 122.69 C 6.21 121.1 3.96 116.79 3.96 113.13 L 3.96 83.44 C 3.96 79.77 6.21 78.07 8.96 79.66 L 36.19 95.38 C 38.94 96.98 41.2 101.27 41.2 104.98 Z"
        fill="#9c9c9c"/>
    <path
        id="path_2"
        d="M 83.63 129.44 L 83.63 159.13 C 83.63 162.79 81.38 164.5 78.63 162.91 L 51.38 147.19 C 48.62 145.6 46.38 141.29 46.38 137.63 L 46.38 107.98 C 46.38 104.31 48.63 102.61 51.38 104.2 L 78.63 119.88 C 81.38 121.47 83.63 125.77 83.63 129.44 Z"
        fill="#0025ff"/>
    <path
        id="path_3"
        d="M 126.07 153.98 L 126.07 183.67 C 126.07 187.33 123.82 189.04 121.07 187.45 L 93.84 171.73 C 91.09 170.14 88.84 165.83 88.84 162.17 L 88.84 132.44 C 88.84 128.77 91.09 127.07 93.84 128.66 L 121.07 144.38 C 123.82 145.98 126.07 150.27 126.07 153.98 Z"
        fill="#0025ff"/>
    <path
        id="path_4"
        d="M 41.2 153.98 L 41.2 183.67 C 41.2 187.34 38.94 189.04 36.2 187.45 L 8.96 171.72 C 6.21 170.13 3.96 165.83 3.96 162.16 L 3.96 132.47 C 3.96 128.8 6.21 127.1 8.96 128.69 L 36.19 144.41 C 38.94 145.98 41.2 150.3 41.2 153.98 Z"
        fill="#0025ff"/>
    <path
        id="path_5"
        d="M 83.63 178.47 L 83.63 208.16 C 83.63 211.83 81.38 213.53 78.63 211.94 L 51.38 196.22 C 48.62 194.63 46.38 190.33 46.38 186.66 L 46.38 156.98 C 46.38 153.31 48.63 151.61 51.38 153.2 L 78.61 168.92 C 81.38 170.5 83.63 174.8 83.63 178.47 Z"
        fill="#0025ff"/>
    <path
        id="path_6"
        d="M 126.07 202.98 L 126.07 232.67 C 126.07 236.34 123.82 238.04 121.07 236.45 L 93.84 220.73 C 91.09 219.14 88.84 214.84 88.84 211.17 L 88.84 181.47 C 88.84 177.8 91.09 176.1 93.84 177.69 L 121.07 193.41 C 123.82 194.98 126.07 199.3 126.07 202.98 Z"
        fill="#9c9c9c"/>
    <path
        id="path_7"
        d="M 41.2 202.98 L 41.2 232.66 C 41.2 236.33 38.94 238.03 36.2 236.44 L 8.96 220.75 C 6.21 219.16 3.96 214.86 3.96 211.19 L 3.96 181.51 C 3.96 177.84 6.21 176.13 8.96 177.72 L 36.19 193.44 C 38.94 195.03 41.2 199.34 41.2 202.98 Z"
        fill="#0025ff"/>
    <path
        id="path_8"
        d="M 83.63 227.51 L 83.63 257.19 C 83.63 260.86 81.38 262.56 78.63 260.97 L 51.38 245.25 C 48.62 243.66 46.38 239.36 46.38 235.69 L 46.38 205.98 C 46.38 202.31 48.63 200.6 51.38 202.19 L 78.63 217.98 C 81.38 219.53 83.63 223.84 83.63 227.51 Z"
        fill="#0025ff"/>
    <path
        id="path_9"
        d="M 126.07 251.98 L 126.07 281.66 C 126.07 285.33 123.82 287.03 121.07 285.44 L 93.84 269.72 C 91.09 268.13 88.84 263.83 88.84 260.16 L 88.84 230.51 C 88.84 226.84 91.09 225.13 93.84 226.72 L 121.07 242.44 C 123.82 244.03 126.07 248.34 126.07 251.98 Z"
        fill="#9c9c9c"/>
    <path
        id="path_10"
        d="M 48.83 91.42 L 76.06 75.7 C 78.82 74.11 78.47 71.31 75.29 69.47 L 49.58 54.63 C 46.4 52.79 41.58 52.63 38.8 54.18 L 11.57 69.9 C 8.82 71.49 9.16 74.29 12.34 76.13 L 38.05 90.98 C 41.23 92.81 46.08 92.98 48.83 91.42 Z"
        fill="#9c9c9c"/>
    <path
        id="path_11"
        d="M 91.27 66.92 L 118.5 51.2 C 121.25 49.61 120.9 46.81 117.72 44.97 L 92.02 30.13 C 88.84 28.29 84.02 28.13 81.23 29.68 L 54 45.4 C 51.25 46.99 51.6 49.79 54.78 51.63 L 80.49 66.47 C 83.66 68.31 88.51 68.51 91.27 66.92 Z"
        fill="#9c9c9c"/>
    <path
        id="path_12"
        d="M 133.7 42.42 L 160.93 26.7 C 163.69 25.11 163.34 22.31 160.16 20.47 L 134.45 5.63 C 131.27 3.79 126.45 3.63 123.67 5.18 L 96.44 20.9 C 93.69 22.49 94.03 25.29 97.21 27.13 L 122.92 41.98 C 126.1 43.81 130.95 43.98 133.7 42.42 Z"
        fill="#9c9c9c"/>
    <path
        id="path_13"
        d="M 91.3 115.98 L 118.53 100.26 C 121.28 98.67 120.93 95.87 117.75 94.04 L 92.04 79.15 C 88.87 77.31 84.04 77.15 81.26 78.7 L 54.03 94.42 C 51.28 96.01 51.63 98.81 54.81 100.65 L 80.51 115.49 C 83.69 117.32 88.54 117.52 91.3 115.98 Z"
        fill="#ea0600"/>
    <path
        id="path_14"
        d="M 133.73 91.43 L 160.96 75.71 C 163.71 74.12 163.37 71.32 160.19 69.49 L 134.48 54.65 C 131.3 52.81 126.48 52.65 123.7 54.2 L 96.47 69.92 C 93.71 71.51 94.06 74.31 97.24 76.15 L 122.95 90.98 C 126.13 92.82 130.98 92.98 133.73 91.43 Z"
        fill="#fff144"/>
    <path
        id="path_15"
        d="M 176.17 66.98 L 203.38 51.21 C 206.13 49.62 205.78 46.82 202.6 44.99 L 176.9 30.15 C 173.72 28.31 168.9 28.15 166.11 29.7 L 138.9 45.42 C 136.15 47.01 136.5 49.81 139.68 51.65 L 165.38 66.49 C 168.56 68.32 173.38 68.52 176.17 66.98 Z"
        fill="#9c9c9c"/>
    <path
        id="path_16"
        d="M 133.76 140.45 L 160.99 124.73 C 163.74 123.14 163.39 120.34 160.22 118.5 L 134.51 103.66 C 131.33 101.83 126.51 101.66 123.73 103.21 L 96.49 118.98 C 93.74 120.57 94.09 123.37 97.27 125.2 L 122.98 139.98 C 126.15 141.84 131.01 142.04 133.76 140.45 Z"
        fill="#ea0600"/>
    <path
        id="path_17"
        d="M 176.19 115.98 L 203.43 100.26 C 206.18 98.67 205.83 95.87 202.65 94.03 L 176.94 79.16 C 173.77 77.33 168.94 77.16 166.16 78.71 L 138.93 94.44 C 136.18 96.03 136.53 98.83 139.7 100.66 L 165.38 115.5 C 168.59 117.34 173.44 117.54 176.19 115.98 Z"
        fill="#9c9c9c"/>
    <path
        id="path_18"
        d="M 218.63 91.45 L 245.86 75.73 C 248.61 74.14 248.26 71.34 245.09 69.5 L 219.38 54.66 C 216.2 52.83 211.38 52.66 208.6 54.21 L 181.38 69.98 C 178.62 71.57 178.97 74.37 182.15 76.2 L 207.85 90.98 C 211.03 92.84 215.88 93.04 218.63 91.45 Z"
        fill="#9c9c9c"/>
    <path
        id="path_19"
        d="M 131.38 154.98 L 131.38 184.67 C 131.38 188.33 133.63 190.04 136.38 188.45 L 163.61 172.73 C 166.37 171.14 168.61 166.83 168.61 163.17 L 168.61 133.44 C 168.61 129.77 166.36 128.07 163.61 129.66 L 136.38 145.38 C 133.61 146.98 131.38 151.27 131.38 154.98 Z"
        fill="#ffffff"/>
    <path
        id="path_20"
        d="M 173.79 130.44 L 173.79 160.13 C 173.79 163.79 176.05 165.5 178.79 163.91 L 206.02 148.19 C 208.77 146.6 211.02 142.29 211.02 138.63 L 211.02 108.98 C 211.02 105.31 208.77 103.61 206.02 105.2 L 178.8 120.88 C 176.05 122.47 173.79 126.77 173.79 130.44 Z"
        fill="#9c9c9c"/>
    <path
        id="path_21"
        d="M 216.23 105.98 L 216.23 135.67 C 216.23 139.33 218.48 141.04 221.23 139.45 L 248.47 123.73 C 251.22 122.14 253.47 117.83 253.47 114.17 L 253.47 84.44 C 253.47 80.77 251.22 79.07 248.47 80.66 L 221.23 96.38 C 218.48 97.98 216.23 102.27 216.23 105.98 Z"
        fill="#9c9c9c"/>
    <path
        id="path_22"
        d="M 131.38 203.98 L 131.38 233.67 C 131.38 237.34 133.63 239.04 136.38 237.45 L 163.61 221.73 C 166.37 220.14 168.61 215.84 168.61 212.17 L 168.61 182.47 C 168.61 178.8 166.36 177.1 163.61 178.69 L 136.38 194.41 C 133.61 195.98 131.38 200.3 131.38 203.98 Z"
        fill="#9c9c9c"/>
    <path
        id="path_23"
        d="M 173.79 179.47 L 173.79 209.16 C 173.79 212.83 176.05 214.53 178.79 212.94 L 206.02 197.22 C 208.77 195.63 211.02 191.33 211.02 187.66 L 211.02 157.98 C 211.02 154.31 208.77 152.61 206.02 154.2 L 178.79 169.92 C 176.05 171.5 173.79 175.8 173.79 179.47 Z"
        fill="#ea0600"/>
    <path
        id="path_24"
        d="M 216.23 154.98 L 216.23 184.67 C 216.23 188.34 218.48 190.04 221.23 188.45 L 248.47 172.73 C 251.22 171.14 253.47 166.84 253.47 163.17 L 253.47 133.47 C 253.47 129.8 251.22 128.1 248.47 129.69 L 221.23 145.41 C 218.48 146.98 216.23 151.3 216.23 154.98 Z"
        fill="#ea0600"/>
    <path
        id="path_25"
        d="M 131.38 252.98 L 131.38 282.66 C 131.38 286.33 133.63 288.03 136.38 286.44 L 163.61 270.72 C 166.37 269.13 168.61 264.83 168.61 261.16 L 168.61 231.51 C 168.61 227.84 166.36 226.13 163.61 227.72 L 136.38 243.44 C 133.61 245.03 131.38 249.34 131.38 252.98 Z"
        fill="#9c9c9c"/>
    <path
        id="path_26"
        d="M 173.79 228.51 L 173.79 258.19 C 173.79 261.86 176.05 263.56 178.79 261.97 L 206.02 246.25 C 208.77 244.66 211.02 240.36 211.02 236.69 L 211.02 206.98 C 211.02 203.31 208.77 201.6 206.02 203.19 L 178.8 218.98 C 176.05 220.53 173.79 224.84 173.79 228.51 Z"
        fill="#ea0600"/>
    <path
        id="path_27"
        d="M 216.23 203.98 L 216.23 233.66 C 216.23 237.33 218.48 239.03 221.23 237.44 L 248.47 221.72 C 251.22 220.13 253.47 215.83 253.47 212.16 L 253.47 182.51 C 253.47 178.84 251.22 177.13 248.47 178.72 L 221.23 194.44 C 218.48 196.03 216.23 200.34 216.23 203.98 Z"
        fill="#ea0600"/>
</svg>
