<svg id="vector" xmlns="http://www.w3.org/2000/svg" width="161" height="161" viewBox="0 0 161 161"><path fill="#000000FF" d="M7.4,0h146.2c4.1,0 7.4,3.3 7.4,7.4v146.2c0,4.1 -3.3,7.4 -7.4,7.4H7.4c-4.1,0 -7.4,-3.3 -7.4,-7.4V7.4C0,3.3 3.3,0 7.4,0z" id="path_0"/><path fill="#07A42E" d="M12.3,0h38.4C52,0 53,1 53,2.3v1.4C53,5 52,6 50.7,6H12.3C11,6 10,5 10,3.7V2.3C10,1 11,0 12.3,0z" id="path_1"/><path fill="#FFA40D" d="M61.3,0h38.4c1.3,0 2.3,1 2.3,2.3v1.4C102,5 101,6 99.7,6H61.3C60,6 59,5 59,3.7V2.3C59,1 60,0 61.3,0z" id="path_2"/><path fill="#07A42E" d="M110.3,0h38.4c1.3,0 2.3,1 2.3,2.3v1.4c0,1.3 -1,2.3 -2.3,2.3h-38.4C109,6 108,5 108,3.7V2.3C108,1 109,0 110.3,0z" id="path_3"/><path fill="#FFA40D" d="M2.3,10h1.4C5,10 6,11 6,12.3v38.4C6,52 5,53 3.7,53H2.3C1,53 0,52 0,50.7V12.3C0,11 1,10 2.3,10z" id="path_4"/><path fill="#FFF144" d="M16.2,10h30.6c3.4,0 6.2,2.8 6.2,6.2v30.6c0,3.4 -2.8,6.2 -6.2,6.2H16.2c-3.4,0 -6.2,-2.8 -6.2,-6.2V16.2C10,12.8 12.8,10 16.2,10z" id="path_5"/><path fill="#FFF144" d="M65.2,10h30.6c3.4,0 6.2,2.8 6.2,6.2v30.6c0,3.4 -2.8,6.2 -6.2,6.2H65.2c-3.4,0 -6.2,-2.8 -6.2,-6.2V16.2C59,12.8 61.8,10 65.2,10z" id="path_6"/><path fill="#FFF144" d="M114.2,10h30.6c3.4,0 6.2,2.8 6.2,6.2v30.6c0,3.4 -2.8,6.2 -6.2,6.2h-30.6c-3.4,0 -6.2,-2.8 -6.2,-6.2V16.2C108,12.8 110.8,10 114.2,10z" id="path_7"/><path fill="#EA0600" d="M157.3,10h1.4c1.3,0 2.3,1 2.3,2.3v38.4c0,1.3 -1,2.3 -2.3,2.3h-1.4c-1.3,0 -2.3,-1 -2.3,-2.3V12.3C155,11 156,10 157.3,10z" id="path_8"/><path fill="#180C8A" d="M2.3,59h1.4C5,59 6,60 6,61.3v38.4c0,1.3 -1,2.3 -2.3,2.3H2.3C1,102 0,101 0,99.7V61.3C0,60 1,59 2.3,59z" id="path_9"/><path fill="#FFF144" d="M16.2,59h30.6c3.4,0 6.2,2.8 6.2,6.2v30.6c0,3.4 -2.8,6.2 -6.2,6.2H16.2c-3.4,0 -6.2,-2.8 -6.2,-6.2V65.2C10,61.8 12.8,59 16.2,59z" id="path_10"/><path fill="#FFF144" d="M65.2,59h30.6c3.4,0 6.2,2.8 6.2,6.2v30.6c0,3.4 -2.8,6.2 -6.2,6.2H65.2c-3.4,0 -6.2,-2.8 -6.2,-6.2V65.2C59,61.8 61.8,59 65.2,59z" id="path_11"/><path fill="#FFF144" d="M114.2,59h30.6c3.4,0 6.2,2.8 6.2,6.2v30.6c0,3.4 -2.8,6.2 -6.2,6.2h-30.6c-3.4,0 -6.2,-2.8 -6.2,-6.2V65.2C108,61.8 110.8,59 114.2,59z" id="path_12"/><path fill="#07A42E" d="M157.3,59h1.4c1.3,0 2.3,1 2.3,2.3v38.4c0,1.3 -1,2.3 -2.3,2.3h-1.4c-1.3,0 -2.3,-1 -2.3,-2.3V61.3C155,60 156,59 157.3,59z" id="path_13"/><path fill="#180C8A" d="M2.3,108h1.4c1.3,0 2.3,1 2.3,2.3v38.4c0,1.3 -1,2.3 -2.3,2.3H2.3C1,151 0,150 0,148.7v-38.4C0,109 1,108 2.3,108z" id="path_14"/><path fill="#FFF144" d="M16.2,108h30.6c3.4,0 6.2,2.8 6.2,6.2v30.6c0,3.4 -2.8,6.2 -6.2,6.2H16.2c-3.4,0 -6.2,-2.8 -6.2,-6.2v-30.6C10,110.8 12.8,108 16.2,108z" id="path_15"/><path fill="#FFF144" d="M65.2,108h30.6c3.4,0 6.2,2.8 6.2,6.2v30.6c0,3.4 -2.8,6.2 -6.2,6.2H65.2c-3.4,0 -6.2,-2.8 -6.2,-6.2v-30.6C59,110.8 61.8,108 65.2,108z" id="path_16"/><path fill="#FFF144" d="M114.2,108h30.6c3.4,0 6.2,2.8 6.2,6.2v30.6c0,3.4 -2.8,6.2 -6.2,6.2h-30.6c-3.4,0 -6.2,-2.8 -6.2,-6.2v-30.6C108,110.8 110.8,108 114.2,108z" id="path_17"/><path fill="#180C8A" d="M157.3,108h1.4c1.3,0 2.3,1 2.3,2.3v38.4c0,1.3 -1,2.3 -2.3,2.3h-1.4c-1.3,0 -2.3,-1 -2.3,-2.3v-38.4C155,109 156,108 157.3,108z" id="path_18"/><path fill="#EA0600" d="M12.3,155h38.4c1.3,0 2.3,1 2.3,2.3v1.4c0,1.3 -1,2.3 -2.3,2.3H12.3c-1.3,0 -2.3,-1 -2.3,-2.3v-1.4C10,156 11,155 12.3,155z" id="path_19"/><path fill="#EA0600" d="M61.3,155h38.4c1.3,0 2.3,1 2.3,2.3v1.4c0,1.3 -1,2.3 -2.3,2.3H61.3c-1.3,0 -2.3,-1 -2.3,-2.3v-1.4C59,156 60,155 61.3,155z" id="path_20"/><path fill="#FFA40D" d="M110.3,155h38.4c1.3,0 2.3,1 2.3,2.3v1.4c0,1.3 -1,2.3 -2.3,2.3h-38.4c-1.3,0 -2.3,-1 -2.3,-2.3v-1.4C108,156 109,155 110.3,155z" id="path_21"/><path fill="#00000000" d="M31.5,31.5L118.7,31.5" stroke-width="1.5" stroke="#000000" id="path_22"/><path fill="#000000FF" d="M116.5,39l13,-7.5l-13,-7.5z" id="path_23"/><path fill="#00000000" d="M129.5,31.5L129.5,118.7" stroke-width="1.5" stroke="#000000" id="path_24"/><path fill="#000000FF" d="M122,116.5l7.5,13l7.5,-13z" id="path_25"/><path fill="#00000000" d="M129.5,129.5L39.1,39.1" stroke-width="1.5" stroke="#000000" id="path_26"/><path fill="#000000FF" d="M45.9,35.4l-14.4,-3.9l3.9,14.4z" id="path_27"/></svg>