<svg version="1.1" xmlns="http://www.w3.org/2000/svg" viewBox="0 0 173.53 195.26">
    <path d="M173.53,141.44V53.83c0-1.76-0.46-3.48-1.35-5.01c-0.89-1.52-2.16-2.79-3.7-3.67L91.81,1.35C90.28,0.46,88.53,0,86.76,0c-1.78,0-3.52,0.46-5.06,1.35L5.05,45.17c-1.54,0.88-2.81,2.14-3.7,3.67S0,52.09,0,53.85v87.59c0,1.76,0.46,3.48,1.35,5.01c0.89,1.52,2.16,2.79,3.7,3.67l76.67,43.81c1.54,0.88,3.28,1.34,5.06,1.34c1.77,0,3.52-0.46,5.06-1.34l76.65-43.81c1.54-0.88,2.81-2.14,3.7-3.67C173.07,144.92,173.54,143.19,173.53,141.44z" />

    <!-- left -->
    <path fill="{}" d="M41.68,81v29.69c0,3.66-2.25,5.37-5,3.78L9.43,98.75c-2.76-1.59-5-5.9-5-9.56V59.54c0-3.67,2.25-5.37,5-3.78l27.25,15.68C39.43,73.03,41.68,77.33,41.68,81z" />
    <path fill="{}" d="M84.12,105.54v29.69c0,3.66-2.25,5.37-5,3.78l-27.23-15.72c-2.75-1.59-5-5.9-5-9.56V84c0-3.67,2.25-5.37,5-3.78l27.23,15.72C81.87,97.54,84.12,101.83,84.12,105.54z" />
    <path fill="{}" d="M41.68,130.03v29.69c0,3.67-2.25,5.37-5,3.78L9.43,147.78c-2.76-1.59-5-5.89-5-9.56v-29.68c0-3.67,2.25-5.37,5-3.78l27.23,15.72C39.43,122.06,41.68,126.36,41.68,130.03z" />
    <path fill="{}" d="M84.12,154.54v29.69c0,3.67-2.25,5.37-5,3.78l-27.23-15.72c-2.75-1.59-5-5.89-5-9.56v-29.7c0-3.67,2.25-5.37,5-3.78l27.23,15.72C81.87,146.54,84.12,150.86,84.12,154.54z" />

    <!-- top -->
    <path fill="{}" d="M49.35,67.54l27.23-15.72c2.75-1.59,2.4-4.39-0.78-6.22L50.09,30.71c-3.17-1.84-8-2-10.78-0.45L12.08,45.98c-2.75,1.59-2.4,4.39,0.78,6.23l25.7,14.84C41.74,68.88,46.59,69.08,49.35,67.54z" />
    <path fill="{}" d="M91.78,42.99l27.23-15.72c2.75-1.59,2.41-4.39-0.77-6.22L92.53,6.21c-3.18-1.84-8-2-10.78-0.45L54.52,21.48c-2.76,1.59-2.41,4.39,0.77,6.23L81,42.54C84.18,44.38,89.03,44.54,91.78,42.99z" />
    <path fill="{}" d="M91.81,92.01l27.23-15.72c2.75-1.59,2.4-4.39-0.77-6.23L92.56,55.22c-3.18-1.83-8-2-10.78-0.45L54.54,70.54c-2.75,1.59-2.4,4.39,0.78,6.22l25.71,14.78C84.2,93.4,89.06,93.6,91.81,92.01z" />
    <path fill="{}" d="M134.24,67.54l27.24-15.72c2.75-1.59,2.4-4.39-0.78-6.23l-25.71-14.87c-3.17-1.83-8-2-10.78-0.45L96.98,46c-2.75,1.59-2.4,4.39,0.77,6.22l25.68,14.84C126.64,68.9,131.49,69.1,134.24,67.54z" />
    <!-- right -->
    <path fill="{}" d="M89.43,106.54v29.69c0,3.66,2.25,5.37,5,3.78l27.23-15.72c2.76-1.59,5-5.9,5-9.56V85c0-3.67-2.25-5.37-5-3.78L94.43,96.94C91.66,98.54,89.43,102.83,89.43,106.54z" />
    <path fill="{}" d="M131.84,82v29.69c0,3.66,2.26,5.37,5,3.78l27.23-15.72c2.75-1.59,5-5.9,5-9.56V60.54c0-3.67-2.25-5.37-5-3.78l-27.22,15.68C134.1,74.03,131.84,78.33,131.84,82z" />
    <path fill="{}" d="M89.43,155.54v29.69c0,3.67,2.25,5.37,5,3.78l27.23-15.72c2.76-1.59,5-5.89,5-9.56v-29.7c0-3.67-2.25-5.37-5-3.78l-27.23,15.72C91.66,147.54,89.43,151.86,89.43,155.54z" />
    <path fill="{}" d="M131.84,131.03v29.69c0,3.67,2.26,5.37,5,3.78l27.23-15.72c2.75-1.59,5-5.89,5-9.56v-29.68c0-3.67-2.25-5.37-5-3.78l-27.23,15.72C134.1,123.06,131.84,127.36,131.84,131.03z" />
</svg>
