<svg version="1.1" xmlns="http://www.w3.org/2000/svg" viewBox="0 0 222.8 222.8">
	<path d="M214.5,30.9h-22.6V8.3c0-4.6-3.7-8.3-8.3-8.3H39.2c-4.6,0-8.3,3.7-8.3,8.3v22.6H8.3c-4.6,0-8.3,3.7-8.3,8.3v144.4c0,4.6,3.7,8.3,8.3,8.3h22.6v22.6c0,4.6,3.7,8.3,8.3,8.3h144.4c4.6,0,8.3-3.7,8.3-8.3v-22.6h22.6c4.6,0,8.3-3.7,8.3-8.3V39.2C222.7,34.6,219,30.9,214.5,30.9z M184.7,143.8c-0.1,0-0.2,0-0.2,0S184.6,143.8,184.7,143.8z" />
    <path style="fill: {}" d="M80.5,23c0,2.2-1.8,4-4,4H39.2c-2.2,0-4-1.8-4-4V8.3c0-2.2,1.8-4,4-4h37.3c2.2,0,4,1.8,4,4V23z" />
    <path style="fill: {}" d="M134.1,23c0,2.2-1.8,4-4,4H92.8c-2.2,0-4-1.8-4-4V8.3c0-2.2,1.8-4,4-4h37.3c2.2,0,4,1.8,4,4V23z" />
    <path style="fill: {}" d="M187.6,23c0,2.2-1.8,4-4,4h-37.3c-2.2,0-4-1.8-4-4V8.3c0-2.2,1.8-4,4-4h37.3c2.2,0,4,1.8,4,4V23z" />

    <path style="fill: {}" d="M23,35.2c2.2,0,4,1.8,4,4v37.3c0,2.2-1.8,4-4,4H8.3c-2.2,0-4-1.8-4-4V39.2c0-2.2,1.8-4,4-4H23z" />
    <path style="fill: {}" d="M80.5,74.9c0,3.1-2.6,5.7-5.7,5.7h-34c-3.1,0-5.7-2.6-5.7-5.7v-34c0-3.1,2.6-5.7,5.7-5.7h34c3.1,0,5.7,2.6,5.7,5.7V74.9z" />
    <path style="fill: {}" d="M134.1,74.9c0,3.1-2.6,5.7-5.7,5.7h-34c-3.1,0-5.7-2.6-5.7-5.7v-34c0-3.1,2.6-5.7,5.7-5.7h34c3.1,0,5.7,2.6,5.7,5.7V74.9z" />
    <path style="fill: {}" d="M187.6,74.9c0,3.1-2.6,5.7-5.7,5.7h-34c-3.1,0-5.7-2.6-5.7-5.7v-34c0-3.1,2.6-5.7,5.7-5.7h34c3.1,0,5.7,2.6,5.7,5.7V74.9z" />
    <path style="fill: {}" d="M214.5,35.2c2.2,0,4,1.8,4,4v37.3c0,2.2-1.8,4-4,4h-14.7c-2.2,0-4-1.8-4-4V39.2c0-2.2,1.8-4,4-4H214.5z" />

    <path style="fill: {}" d="M23,88.7c2.2,0,4,1.8,4,4V130c0,2.2-1.8,4-4,4H8.3c-2.2,0-4-1.8-4-4V92.7c0-2.2,1.8-4,4-4C8.3,88.7,23,88.7,23,88.7z" />
    <path style="fill: {}" d="M40.8,134.1c-3.1,0-5.7-2.6-5.7-5.7v-34c0-3.1,2.6-5.7,5.7-5.7h34c3.1,0,5.7,2.6,5.7,5.7v34c0,3.1-2.6,5.7-5.7,5.7H40.8z" />
    <path style="fill: {}" d="M94.4,134.1c-3.1,0-5.7-2.6-5.7-5.7v-34c0-3.1,2.6-5.7,5.7-5.7h34c3.1,0,5.7,2.6,5.7,5.7v34c0,3.1-2.6,5.7-5.7,5.7H94.4z" />
    <path style="fill: {}" d="M147.9,134.1c-3.1,0-5.7-2.6-5.7-5.7v-34c0-3.1,2.6-5.7,5.7-5.7h34c3.1,0,5.7,2.6,5.7,5.7v34c0,3.1-2.6,5.7-5.7,5.7H147.9z" />
    <path style="fill: {}" d="M214.5,88.7c2.2,0,4,1.8,4,4V130c0,2.2-1.8,4-4,4h-14.7c-2.2,0-4-1.8-4-4V92.7c0-2.2,1.8-4,4-4C199.8,88.7,214.5,88.7,214.5,88.7z" />


    <path style="fill: {}" d="M23,142.3c2.2,0,4,1.8,4,4v37.3c0,2.2-1.8,4-4,4H8.3c-2.2,0-4-1.8-4-4v-37.3c0-2.2,1.8-4,4-4H23z" />
    <path style="fill: {}" d="M40.8,187.6c-3.1,0-5.7-2.6-5.7-5.7v-34c0-3.1,2.6-5.7,5.7-5.7h34c3.1,0,5.7,2.6,5.7,5.7v34c0,3.1-2.6,5.7-5.7,5.7H40.8z" />
    <path style="fill: {}" d="M94.4,187.6c-3.1,0-5.7-2.6-5.7-5.7v-34c0-3.1,2.6-5.7,5.7-5.7h34c3.1,0,5.7,2.6,5.7,5.7v34c0,3.1-2.6,5.7-5.7,5.7H94.4z" />
    <path style="fill: {}" d="M147.9,187.6c-3.1,0-5.7-2.6-5.7-5.7v-34c0-3.1,2.6-5.7,5.7-5.7h34c3.1,0,5.7,2.6,5.7,5.7v34c0,3.1-2.6,5.7-5.7,5.7H147.9z" />
    <path style="fill: {}" d="M214.5,142.3c2.2,0,4,1.8,4,4v37.3c0,2.2-1.8,4-4,4h-14.7c-2.2,0-4-1.8-4-4v-37.3c0-2.2,1.8-4,4-4H214.5z" />

    <path style="fill: {}" d="M80.5,214.5c0,2.2-1.8,4-4,4H39.2c-2.2,0-4-1.8-4-4v-14.7c0-2.2,1.8-4,4-4h37.3c2.2,0,4,1.8,4,4V214.5z" />
    <path style="fill: {}" d="M134.1,214.5c0,2.2-1.8,4-4,4H92.8c-2.2,0-4-1.8-4-4v-14.7c0-2.2,1.8-4,4-4h37.3c2.2,0,4,1.8,4,4V214.5z" />
    <path style="fill: {}" d="M187.6,214.5c0,2.2-1.8,4-4,4h-37.3c-2.2,0-4-1.8-4-4v-14.7c0-2.2,1.8-4,4-4h37.3c2.2,0,4,1.8,4,4V214.5z" />

    <polygon style="display:{}" points="152.45,59.09 152.45,65.35 165.45,57.85 152.45,50.35 152.45,56.6 57.85,56.6 57.85,59.1 	" />
    <polygon style="display:{}" points="70.6,56.66 70.6,50.4 57.6,57.9 70.6,65.4 70.6,59.15 165.2,59.15 165.2,56.65 	" />
    <polygon style="display:{}" points="70.6,50.4 57.6,57.9 70.6,65.4 70.6,59.15 152.45,59.09 152.45,65.35 165.45,57.85 152.45,50.35 152.45,56.6 70.6,56.66 	" />
    <polygon style="display:{}" points="152.58,112.57 152.58,118.82 165.58,111.32 152.58,103.82 152.57,110.07 57.98,110.08 57.98,112.57 	" />
    <polygon style="display:{}" points="70.72,110.13 70.72,103.88 57.72,111.38 70.72,118.88 70.73,112.63 165.33,112.62 165.33,110.13 	" />
    <polygon style="display:{}" points="70.72,103.88 57.72,111.38 70.72,118.88 70.73,112.63 152.58,112.57 152.58,118.82 165.58,111.32 152.58,103.82 152.57,110.07 70.72,110.13 	" />
    <polygon style="display:{}" points="152.58,166.17 152.58,172.43 165.58,164.93 152.58,157.43 152.57,163.67 57.98,163.68 57.98,166.17 	" />
    <polygon style="display:{}" points="70.72,163.73 70.72,157.48 57.72,164.98 70.72,172.48 70.73,166.23 165.33,166.22 165.33,163.73 	" />
    <polygon style="display:{}" points="70.72,157.48 57.72,164.98 70.72,172.48 70.73,166.23 152.58,166.17 152.58,172.43 165.58,164.93 152.58,157.43 152.57,163.67 70.72,163.73 	" />
    <polygon style="display:{}" points="58.01,152.33 51.75,152.33 59.25,165.33 66.75,152.33 60.51,152.32 60.5,57.72 58,57.72 	" />
    <polygon style="display:{}" points="60.45,70.47 66.7,70.47 59.2,57.47 51.7,70.47 57.95,70.48 57.95,165.08 60.45,165.08 	" />
    <polygon style="display:{}" points="66.7,70.47 59.2,57.47 51.7,70.47 57.95,70.48 58.01,152.33 51.75,152.33 59.25,165.33 66.75,152.33 60.51,152.32 60.45,70.47 	" />
    <polygon style="display:{}" points="110.56,152.75 104.3,152.75 111.8,165.75 119.3,152.75 113.06,152.75 113.05,58.15 110.55,58.15 	" />
    <polygon style="display:{}" points="113,70.9 119.25,70.9 111.75,57.9 104.25,70.9 110.5,70.9 110.5,165.5 113,165.5 	" />
    <polygon style="display:{}" points="119.25,70.9 111.75,57.9 104.25,70.9 110.5,70.9 110.56,152.75 104.3,152.75 111.8,165.75 119.3,152.75 113.06,152.75 113,70.9 	" />
    <polygon style="display:{}" points="163.68,152.63 157.42,152.63 164.92,165.63 172.42,152.63 166.18,152.62 166.17,58.03 163.68,58.03 	" />
    <polygon style="display:{}" points="166.12,70.77 172.38,70.77 164.88,57.77 157.38,70.77 163.62,70.78 163.63,165.38 166.12,165.38 	" />
    <polygon style="display:{}" points="172.38,70.77 164.88,57.77 157.38,70.77 163.62,70.78 163.68,152.63 157.42,152.63 164.92,165.63 172.42,152.63 166.18,152.62 166.12,70.77 	" />
    <polygon style="display:{}" points="150.69,152.44 144.56,158.54 164.65,163.9 159.26,143.91 153.13,150 60.42,57.72 57.98,60.16 	" />
    <polygon style="display:{}" points="72.86,70.21 78.99,64.11 58.9,58.75 64.29,78.74 70.42,72.65 163.13,164.93 165.58,162.49 	" />
    <polygon style="display:{}" points="78.99,64.11 58.9,58.75 64.29,78.74 70.42,72.65 150.69,152.44 144.56,158.54 164.65,163.9 159.26,143.91 153.13,150 72.86,70.21 	" />
    <polygon style="display:{}" points="71.56,150.86 65.46,144.73 60.09,164.82 80.09,159.43 74,153.31 166.27,60.6 163.83,58.15 	" />
    <polygon style="display:{}" points="153.78,73.04 159.88,79.17 165.25,59.08 145.25,64.47 151.34,70.59 59.07,163.3 61.51,165.75 	" />
    <polygon style="display:{}" points="159.88,79.17 165.25,59.08 145.25,64.47 151.34,70.59 71.56,150.86 65.46,144.73 60.09,164.82 80.09,159.43 74,153.31 153.78,73.04 	" />
    <polygon style="display:{}" points="158.14,105.03 155.07,108.09 165.11,110.78 162.42,100.74 159.36,103.8 113.03,57.47 111.8,58.7 	" />
    <polygon style="display:{}" points="119.24,63.74 122.31,60.68 112.27,57.99 114.96,68.03 118.02,64.97 164.35,111.3 165.58,110.07 	" />
    <polygon style="display:{}" points="122.31,60.68 112.27,57.99 114.96,68.03 118.02,64.97 158.14,105.03 155.07,108.09 165.11,110.78 162.42,100.74 159.36,103.8 119.24,63.74 	" />
    <polygon style="display:{}" points="104.31,158.34 101.25,161.4 111.29,164.1 108.59,154.06 105.53,157.11 59.2,110.78 57.98,112.01 	" />
    <polygon style="display:{}" points="65.42,117.06 68.48,113.99 58.44,111.3 61.13,121.34 64.19,118.28 110.53,164.61 111.75,163.39 	" />
    <polygon style="display:{}" points="68.48,113.99 58.44,111.3 61.13,121.34 64.19,118.28 104.31,158.34 101.25,161.4 111.29,164.1 108.59,154.06 105.53,157.11 65.42,117.06 	" />
    <polygon style="display:{}" points="117.09,156.89 114.03,153.82 111.34,163.86 121.38,161.17 118.32,158.11 164.65,111.78 163.42,110.55 	" />
    <polygon style="display:{}" points="158.38,117.99 161.44,121.06 164.14,111.02 154.1,113.71 157.15,116.77 110.82,163.1 112.05,164.33 	" />
    <polygon style="display:{}" points="161.44,121.06 164.14,111.02 154.1,113.71 157.15,116.77 117.09,156.89 114.03,153.82 111.34,163.86 121.38,161.17 118.32,158.11 158.38,117.99 	" />
    <polygon style="display:{}" points="65.52,105.08 62.46,102.02 59.77,112.06 69.81,109.36 66.75,106.3 113.08,59.97 111.85,58.75 	" />
    <polygon style="display:{}" points="106.81,66.19 109.87,69.25 112.56,59.21 102.52,61.9 105.58,64.97 59.25,111.3 60.48,112.52 	" />
    <polygon style="display:{}" points="109.87,69.25 112.56,59.21 102.52,61.9 105.58,64.97 65.52,105.08 62.46,102.02 59.77,112.06 69.81,109.36 66.75,106.3 106.81,66.19 	" />
</svg>
