<svg xmlns="http://www.w3.org/2000/svg" viewBox="0 0 343.85 392.49">
    <path d="M343.85,284.31V108.2c0.01-7.19-3.81-13.83-10-17.43L181.92,2.71c-6.19-3.61-13.84-3.61-20.04,0L10,90.81c-6.2,3.6-10.01,10.24-10,17.43v176.07c-0.01,7.19,3.81,13.83,10,17.43l151.92,88.06c6.2,3.59,13.84,3.59,20.04,0l151.88-88.06C340.04,298.14,343.86,291.49,343.85,284.31z" />

    <path fill="{}" d="M42.05,133.54v29.69c0,3.66-2.26,5.37-5,3.78L9.81,151.25c-2.75-1.59-5-5.9-5-9.56V112c0-3.67,2.25-5.37,5-3.78l27.23,15.72C39.79,125.54,42.05,129.83,42.05,133.54z" />
    <path fill="{}" d="M84.41,155.68v29.69c0,3.66-2.26,5.37-5,3.78l-27.24-15.76c-2.75-1.59-5-5.9-5-9.56v-29.69c0-3.67,2.25-5.37,5-3.78l27.23,15.72C82.15,147.68,84.41,151.97,84.41,155.68z" />
    <path fill="{}" d="M126.84,180.14v29.69c0,3.66-2.25,5.37-5,3.78l-27.25-15.72c-2.76-1.59-5-5.9-5-9.56v-29.65c0-3.67,2.25-5.37,5-3.78l27.25,15.68C124.59,172.17,126.84,176.47,126.84,180.14z" />
    <path fill="{}" d="M169.28,204.68v29.69c0,3.66-2.25,5.37-5,3.78l-27.23-15.72c-2.75-1.59-5-5.9-5-9.56v-29.73c0-3.67,2.25-5.37,5-3.78l27.23,15.72C167.03,196.68,169.28,200.97,169.28,204.68z" />

    <path fill="{}" d="M42.05,182.54v29.69c0,3.67-2.26,5.37-5,3.78L9.81,200.28c-2.75-1.59-5-5.89-5-9.56v-29.69c0-3.67,2.25-5.37,5-3.78l27.23,15.72C39.79,174.54,42.05,178.86,42.05,182.54z" />
    <path fill="{}" d="M84.41,204.68v29.69c0,3.67-2.26,5.37-5,3.78l-27.24-15.73c-2.75-1.59-5-5.89-5-9.56v-29.69c0-3.67,2.25-5.37,5-3.78l27.23,15.72C82.15,196.68,84.41,201,84.41,204.68z" />
    <path fill="{}" d="M126.84,229.17v29.69c0,3.67-2.25,5.37-5,3.78l-27.25-15.72c-2.76-1.59-5-5.89-5-9.56v-29.68c0-3.67,2.25-5.37,5-3.78l27.23,15.72C124.59,221.2,126.84,225.5,126.84,229.17z" />
    <path fill="{}" d="M169.28,253.68v29.69c0,3.67-2.25,5.37-5,3.78l-27.23-15.72c-2.75-1.59-5-5.89-5-9.56v-29.7c0-3.67,2.25-5.37,5-3.78l27.23,15.72C167.03,245.68,169.28,250,169.28,253.68z" />

    <path fill="{}" d="M42.05,231.54v29.68c0,3.67-2.26,5.37-5,3.78L9.81,249.31c-2.75-1.59-5-5.89-5-9.56v-29.68c0-3.67,2.25-5.38,5-3.79L37.04,222C39.79,223.59,42.05,227.9,42.05,231.54z" />
    <path fill="{}" d="M84.41,253.68v29.68c0,3.67-2.26,5.37-5,3.78l-27.24-15.69c-2.75-1.59-5-5.89-5-9.56v-29.68c0-3.67,2.25-5.38,5-3.79l27.23,15.72C82.15,245.73,84.41,250.04,84.41,253.68z" />
    <path fill="{}" d="M126.84,278.21v29.68c0,3.67-2.25,5.37-5,3.78l-27.25-15.72c-2.76-1.59-5-5.89-5-9.56v-29.71c0-3.67,2.25-5.38,5-3.79l27.25,15.79C124.59,270.23,126.84,274.54,126.84,278.21z" />
    <path fill="{}" d="M169.28,302.68v29.68c0,3.67-2.25,5.37-5,3.78l-27.23-15.72c-2.75-1.59-5-5.89-5-9.56v-29.65c0-3.67,2.25-5.38,5-3.79l27.23,15.72C167.03,294.73,169.28,299.04,169.28,302.68z" />

    <path fill="{}" d="M42.04,280.54v29.68c0,3.67-2.26,5.37-5,3.78L9.8,298.31c-2.75-1.59-5-5.89-5-9.56v-29.68c0-3.67,2.25-5.38,5-3.79L37.03,271C39.78,272.59,42.04,276.9,42.04,280.54z" />
    <path fill="{}" d="M84.4,302.68v29.68c0,3.67-2.26,5.37-5,3.78l-27.24-15.69c-2.75-1.59-5-5.89-5-9.56v-29.68c0-3.67,2.25-5.38,5-3.79l27.23,15.72C82.14,294.73,84.4,299.04,84.4,302.68z" />
    <path fill="{}" d="M126.83,327.21v29.68c0,3.67-2.25,5.37-5,3.78l-27.25-15.72c-2.76-1.59-5-5.89-5-9.56v-29.71c0-3.67,2.25-5.38,5-3.79l27.25,15.79C124.58,319.23,126.83,323.54,126.83,327.21z" />
    <path fill="{}" d="M169.27,351.68v29.68c0,3.67-2.25,5.37-5,3.78l-27.23-15.72c-2.75-1.59-5-5.89-5-9.56v-29.65c0-3.67,2.25-5.38,5-3.79l27.23,15.72C167.02,343.73,169.27,348.04,169.27,351.68z" />


    <path fill="{}" d="M49.61,117.62l27.23-15.72c2.76-1.59,2.41-4.39-0.77-6.23L50.36,80.83c-3.18-1.84-8-2-10.78-0.45L12.35,96.1c-2.75,1.59-2.41,4.39,0.77,6.23l25.71,14.85C42.01,119.01,46.86,119.18,49.61,117.62z" />
    <path fill="{}" d="M92.05,93.12l27.23-15.72c2.75-1.59,2.4-4.39-0.78-6.23L92.8,56.33c-3.18-1.84-8-2-10.79-0.45L54.78,71.6c-2.75,1.59-2.4,4.39,0.78,6.23l25.71,14.84C84.44,94.51,89.29,94.71,92.05,93.12z" />
    <path fill="{}" d="M134.48,68.62l27.23-15.72c2.76-1.59,2.41-4.39-0.77-6.23l-25.71-14.84c-3.18-1.84-8-2-10.78-0.45L97.22,47.1c-2.75,1.59-2.41,4.39,0.77,6.23l25.71,14.85C126.88,70.01,131.73,70.18,134.48,68.62z" />
    <path fill="{}" d="M176.96,44.08l27.23-15.72c2.76-1.59,2.41-4.39-0.77-6.23L177.71,7.29c-3.18-1.84-8-2-10.78-0.45L139.7,22.56c-2.75,1.59-2.41,4.39,0.77,6.23l25.71,14.85C169.36,45.47,174.21,45.64,176.96,44.08z" />

    <path fill="{}" d="M92.04,142.12l27.23-15.72c2.76-1.59,2.41-4.39-0.77-6.23l-25.71-14.84c-3.18-1.84-8-2-10.78-0.45L54.78,120.6c-2.75,1.59-2.41,4.39,0.77,6.23l25.71,14.85C84.44,143.51,89.29,143.68,92.04,142.12z" />
    <path fill="{}" d="M134.48,117.62l27.23-15.72c2.75-1.59,2.4-4.39-0.78-6.23l-25.7-14.84c-3.18-1.84-8-2-10.79-0.45L97.21,96.1c-2.75,1.59-2.4,4.39,0.78,6.23l25.71,14.84C126.87,119.01,131.72,119.21,134.48,117.62z" />
    <path fill="{}" d="M176.91,93.12l27.23-15.72c2.76-1.59,2.41-4.39-0.77-6.23l-25.71-14.84c-3.18-1.84-8-2-10.78-0.45L139.65,71.6c-2.75,1.59-2.41,4.39,0.77,6.23l25.71,14.85C169.31,94.51,174.16,94.68,176.91,93.12z" />
    <path fill="{}" d="M221.57,68.58l27.23-15.72c2.76-1.59,2.41-4.39-0.77-6.23l-25.71-14.84c-3.18-1.84-8-2-10.78-0.45l-27.23,15.72c-2.75,1.59-2.41,4.39,0.77,6.23l25.71,14.85C213.97,69.97,218.82,70.14,221.57,68.58z" />

    <path fill="{}" d="M134.51,166.68l27.23-15.72c2.75-1.59,2.4-4.39-0.78-6.22l-25.71-14.89c-3.17-1.84-8-2-10.78-0.45l-27.23,15.72c-2.75,1.59-2.4,4.39,0.78,6.23l25.7,14.84C126.9,168.02,131.75,168.22,134.51,166.68z" />
    <path fill="{}" d="M176.94,142.13l27.23-15.72c2.75-1.59,2.41-4.39-0.77-6.22l-25.71-14.84c-3.18-1.84-8-2-10.78-0.45l-27.23,15.72c-2.76,1.59-2.41,4.39,0.77,6.23l25.71,14.83C169.34,143.52,174.19,143.68,176.94,142.13z" />
    <path fill="{}" d="M219.38,117.68l27.21-15.77c2.75-1.59,2.4-4.39-0.78-6.22l-25.7-14.84c-3.18-1.84-8-2-10.79-0.45l-27.21,15.72c-2.75,1.59-2.4,4.39,0.78,6.23l25.7,14.84C211.77,119.02,216.59,119.22,219.38,117.68z" />
    <path fill="{}" d="M264.04,93.14l27.21-15.77c2.75-1.59,2.4-4.39-0.78-6.22l-25.7-14.84c-3.18-1.84-8-2-10.79-0.45l-27.21,15.72c-2.75,1.59-2.4,4.39,0.78,6.23l25.7,14.84C256.43,94.48,261.25,94.68,264.04,93.14z" />

    <path fill="{}" d="M176.97,191.15l27.23-15.72c2.75-1.59,2.4-4.39-0.77-6.23l-25.71-14.84c-3.18-1.83-8-2-10.78-0.45l-27.24,15.77c-2.75,1.59-2.4,4.39,0.78,6.22l25.71,14.78C169.36,192.54,174.22,192.74,176.97,191.15z" />
    <path fill="{}" d="M219.4,166.68l27.24-15.72c2.75-1.59,2.4-4.39-0.78-6.23l-25.71-14.87c-3.17-1.83-8-2-10.78-0.45l-27.23,15.73c-2.75,1.59-2.4,4.39,0.77,6.22l25.68,14.84C211.8,168.04,216.65,168.24,219.4,166.68z" />
    <path fill="{}" d="M261.84,142.15l27.23-15.72c2.75-1.59,2.4-4.39-0.77-6.23l-25.71-14.84c-3.18-1.83-8-2-10.78-0.45l-27.22,15.77c-2.76,1.59-2.41,4.39,0.77,6.22l25.7,14.78C254.24,143.54,259.09,143.74,261.84,142.15z" />
    <path fill="{}" d="M306.5,117.61l27.23-15.72c2.75-1.59,2.4-4.39-0.77-6.23l-25.71-14.84c-3.18-1.83-8-2-10.78-0.45l-27.22,15.77c-2.76,1.59-2.41,4.39,0.77,6.22l25.7,14.78C298.9,119,303.75,119.2,306.5,117.61z" />



    <path fill="{}" d="M174.59,205.68v29.69c0,3.66,2.25,5.37,5,3.78l27.23-15.72c2.76-1.59,5-5.9,5-9.56v-29.73c0-3.67-2.25-5.37-5-3.78l-27.23,15.72C176.82,197.68,174.59,201.97,174.59,205.68z" />
    <path fill="{}" d="M217,181.14v29.69c0,3.66,2.26,5.37,5,3.78l27.23-15.72c2.75-1.59,5-5.9,5-9.56v-29.65c0-3.67-2.25-5.37-5-3.78l-27.22,15.68C219.26,173.17,217,177.47,217,181.14z" />
    <path fill="{}" d="M259.44,156.68v29.69c0,3.66,2.25,5.37,5,3.78l27.24-15.72c2.75-1.59,5-5.9,5-9.56v-29.73c0-3.67-2.25-5.37-5-3.78l-27.24,15.72C261.69,148.68,259.44,152.97,259.44,156.68z" />
    <path fill="{}" d="M301.51,133.54v29.69c0,3.66,2.25,5.37,5,3.78l27.24-15.72c2.75-1.59,5-5.9,5-9.56V112c0-3.67-2.25-5.37-5-3.78l-27.24,15.72C303.76,125.54,301.51,129.83,301.51,133.54z" />

    <path fill="{}" d="M174.59,254.68v29.69c0,3.67,2.25,5.37,5,3.78l27.23-15.72c2.76-1.59,5-5.89,5-9.56v-29.7c0-3.67-2.25-5.37-5-3.78l-27.23,15.72C176.82,246.68,174.59,251,174.59,254.68z" />
    <path fill="{}" d="M217,230.17v29.69c0,3.67,2.26,5.37,5,3.78l27.23-15.72c2.75-1.59,5-5.89,5-9.56v-29.68c0-3.67-2.25-5.37-5-3.78L222,220.62C219.26,222.2,217,226.5,217,230.17z" />
    <path fill="{}" d="M259.44,205.68v29.69c0,3.67,2.25,5.37,5,3.78l27.24-15.72c2.75-1.59,5-5.89,5-9.56v-29.7c0-3.67-2.25-5.37-5-3.78l-27.24,15.72C261.69,197.68,259.44,202,259.44,205.68z" />
    <path fill="{}" d="M301.51,182.54v29.69c0,3.67,2.25,5.37,5,3.78l27.24-15.72c2.75-1.59,5-5.89,5-9.56v-29.7c0-3.67-2.25-5.37-5-3.78l-27.24,15.72C303.76,174.54,301.51,178.86,301.51,182.54z" />

    <path fill="{}" d="M174.59,303.68v29.68c0,3.67,2.25,5.37,5,3.78l27.23-15.72c2.76-1.59,5-5.89,5-9.56v-29.65c0-3.67-2.25-5.38-5-3.79l-27.23,15.72C176.82,295.73,174.59,300.04,174.59,303.68z" />
    <path fill="{}" d="M217,279.21v29.68c0,3.67,2.26,5.37,5,3.78l27.23-15.72c2.75-1.59,5-5.89,5-9.56v-29.71c0-3.67-2.25-5.38-5-3.79l-27.22,15.79C219.26,271.23,217,275.54,217,279.21z" />
    <path fill="{}" d="M259.44,254.68v29.68c0,3.67,2.25,5.37,5,3.78l27.24-15.72c2.75-1.59,5-5.89,5-9.56v-29.65c0-3.67-2.25-5.38-5-3.79l-27.24,15.72C261.69,246.73,259.44,251.04,259.44,254.68z" />
    <path fill="{}" d="M301.51,231.54v29.68c0,3.67,2.25,5.37,5,3.78l27.24-15.72c2.75-1.59,5-5.89,5-9.56v-29.65c0-3.67-2.25-5.38-5-3.79L306.51,222C303.76,223.59,301.51,227.9,301.51,231.54z" />

    <path fill="{}" d="M174.57,351.68v29.68c0,3.67,2.25,5.37,5,3.78l27.23-15.72c2.76-1.59,5-5.89,5-9.56v-29.65c0-3.67-2.25-5.38-5-3.79l-27.23,15.72C176.8,343.73,174.57,348.04,174.57,351.68z" />
    <path fill="{}" d="M216.98,327.21v29.68c0,3.67,2.26,5.37,5,3.78l27.23-15.72c2.75-1.59,5-5.89,5-9.56v-29.71c0-3.67-2.25-5.38-5-3.79l-27.22,15.79C219.24,319.23,216.98,323.54,216.98,327.21z" />
    <path fill="{}" d="M259.42,302.68v29.68c0,3.67,2.25,5.37,5,3.78l27.24-15.72c2.75-1.59,5-5.89,5-9.56v-29.65c0-3.67-2.25-5.38-5-3.79l-27.24,15.72C261.67,294.73,259.42,299.04,259.42,302.68z" />
    <path fill="{}" d="M301.49,279.54v29.68c0,3.67,2.25,5.37,5,3.78l27.24-15.72c2.75-1.59,5-5.89,5-9.56v-29.65c0-3.67-2.25-5.38-5-3.79L306.49,270C303.74,271.59,301.49,275.9,301.49,279.54z" />
</svg>
