<svg xmlns="http://www.w3.org/2000/svg" viewBox="0 0 430.7 489.2">
    <path d="M430.7,354.3V134.9c0-9-4.8-17.2-12.5-21.7L227.9,3.4c-7.8-4.5-17.3-4.5-25.1,0L12.5,113.2C4.8,117.7,0,125.9,0,134.9v219.4c0,9,4.8,17.2,12.5,21.7l190.3,109.8c7.8,4.5,17.3,4.5,25.1,0l190.2-109.8C425.9,371.6,430.7,363.3,430.7,354.3z" />

    <path fill="{}" d="M43,153.8v29.7c0,3.7-2.3,5.4-5,3.8l-27.2-15.8c-2.8-1.6-5-5.9-5-9.6v-29.7c0-3.7,2.2-5.4,5-3.8L38,144.2C40.8,145.8,43,150.1,43,153.8z" />
    <path fill="{}" d="M85.4,178.3V208c0,3.7-2.3,5.4-5,3.8L53.2,196c-2.8-1.6-5-5.9-5-9.6v-29.7c0-3.7,2.2-5.4,5-3.8l27.2,15.7C83.2,170.3,85.4,174.6,85.4,178.3z" />
    <path fill="{}" d="M127.8,202.8v29.7c0,3.7-2.3,5.4-5,3.8l-27.2-15.8c-2.8-1.6-5-5.9-5-9.6v-29.7c0-3.7,2.2-5.4,5-3.8l27.2,15.7C125.6,194.8,127.8,199.1,127.8,202.8z" />
    <path fill="{}" d="M170.3,227.3v29.7c0,3.7-2.2,5.4-5,3.8L138,245c-2.8-1.6-5-5.9-5-9.6v-29.6c0-3.7,2.2-5.4,5-3.8l27.2,15.7C168,219.3,170.3,223.6,170.3,227.3z" />
    <path fill="{}" d="M212.7,251.8v29.7c0,3.7-2.2,5.4-5,3.8l-27.2-15.7c-2.8-1.6-5-5.9-5-9.6v-29.7c0-3.7,2.2-5.4,5-3.8l27.2,15.7C210.5,243.8,212.7,248.1,212.7,251.8z" />

    <path fill="{}" d="M43,202.8v29.7c0,3.7-2.3,5.4-5,3.8l-27.2-15.7c-2.8-1.6-5-5.9-5-9.6v-29.7c0-3.7,2.2-5.4,5-3.8L38,193.2C40.8,194.8,43,199.1,43,202.8z" />
    <path fill="{}" d="M85.4,227.3V257c0,3.7-2.3,5.4-5,3.8L53.2,245c-2.8-1.6-5-5.9-5-9.6v-29.7c0-3.7,2.2-5.4,5-3.8l27.2,15.7C83.2,219.3,85.4,223.6,85.4,227.3z" />
    <path fill="{}" d="M127.8,251.8v29.7c0,3.7-2.3,5.4-5,3.8l-27.2-15.7c-2.8-1.6-5-5.9-5-9.6v-29.7c0-3.7,2.2-5.4,5-3.8l27.2,15.7C125.6,243.8,127.8,248.1,127.8,251.8z" />
    <path fill="{}" d="M170.3,276.3V306c0,3.7-2.2,5.4-5,3.8L138,294c-2.8-1.6-5-5.9-5-9.6v-29.7c0-3.7,2.2-5.4,5-3.8l27.2,15.7C168,268.3,170.3,272.6,170.3,276.3z" />
    <path fill="{}" d="M212.7,300.8v29.7c0,3.7-2.2,5.4-5,3.8l-27.2-15.7c-2.8-1.6-5-5.9-5-9.6v-29.7c0-3.7,2.2-5.4,5-3.8l27.2,15.7C210.5,292.8,212.7,297.1,212.7,300.8z" />

    <path fill="{}" d="M43,251.8v29.7c0,3.7-2.3,5.4-5,3.8l-27.2-15.7c-2.8-1.6-5-5.9-5-9.6v-29.7c0-3.7,2.2-5.4,5-3.8L38,242.3C40.8,243.8,43,248.2,43,251.8z" />
    <path fill="{}" d="M85.4,276.3V306c0,3.7-2.3,5.4-5,3.8l-27.2-15.7c-2.8-1.6-5-5.9-5-9.6v-29.7c0-3.7,2.2-5.4,5-3.8l27.2,15.7C83.2,268.3,85.4,272.7,85.4,276.3z" />
    <path fill="{}" d="M127.8,300.8v29.7c0,3.7-2.3,5.4-5,3.8l-27.2-15.7c-2.8-1.6-5-5.9-5-9.6v-29.7c0-3.7,2.2-5.4,5-3.8l27.2,15.7C125.6,292.8,127.8,297.2,127.8,300.8z" />
    <path fill="{}" d="M170.3,325.3V355c0,3.7-2.2,5.4-5,3.8L138,343.1c-2.8-1.6-5-5.9-5-9.6v-29.7c0-3.7,2.2-5.4,5-3.8l27.2,15.8C168,317.3,170.3,321.7,170.3,325.3z" />
    <path fill="{}" d="M212.7,349.8v29.7c0,3.7-2.2,5.4-5,3.8l-27.2-15.7c-2.8-1.6-5-5.9-5-9.6v-29.6c0-3.7,2.2-5.4,5-3.8l27.2,15.7C210.5,341.8,212.7,346.2,212.7,349.8z" />

    <path fill="{}" d="M43,300.8v29.7c0,3.7-2.3,5.4-5,3.8l-27.2-15.7c-2.8-1.6-5-5.9-5-9.6v-29.7c0-3.7,2.2-5.4,5-3.8L38,291.3C40.8,292.8,43,297.2,43,300.8z" />
    <path fill="{}" d="M85.4,325.3V355c0,3.7-2.3,5.4-5,3.8l-27.2-15.7c-2.8-1.6-5-5.9-5-9.6v-29.7c0-3.7,2.2-5.4,5-3.8l27.2,15.7C83.2,317.3,85.4,321.7,85.4,325.3z" />
    <path fill="{}" d="M127.8,349.8v29.7c0,3.7-2.3,5.4-5,3.8l-27.2-15.7c-2.8-1.6-5-5.9-5-9.6v-29.7c0-3.7,2.2-5.4,5-3.8l27.2,15.7C125.6,341.8,127.8,346.2,127.8,349.8z" />
    <path fill="{}" d="M170.3,374.3V404c0,3.7-2.2,5.4-5,3.8L138,392.1c-2.8-1.6-5-5.9-5-9.6v-29.7c0-3.7,2.2-5.4,5-3.8l27.2,15.8C168,366.3,170.3,370.7,170.3,374.3z" />
    <path fill="{}" d="M212.7,398.8v29.7c0,3.7-2.2,5.4-5,3.8l-27.2-15.7c-2.8-1.6-5-5.9-5-9.6v-29.6c0-3.7,2.2-5.4,5-3.8l27.2,15.7C210.4,390.8,212.7,395.2,212.7,398.8z" />

    <path fill="{}" d="M43.5,349.8v29.7c0,3.7-2.3,5.4-5,3.8l-27.2-15.7c-2.8-1.6-5-5.9-5-9.6v-29.7c0-3.7,2.2-5.4,5-3.8l27.2,15.7C41.2,341.8,43.5,346.2,43.5,349.8z" />
    <path fill="{}" d="M85.9,374.3V404c0,3.7-2.3,5.4-5,3.8l-27.2-15.7c-2.8-1.6-5-5.9-5-9.6v-29.7c0-3.7,2.2-5.4,5-3.8l27.2,15.7C83.6,366.3,85.9,370.7,85.9,374.3z" />
    <path fill="{}" d="M128.3,398.8v29.7c0,3.7-2.3,5.4-5,3.8L96,416.6c-2.8-1.6-5-5.9-5-9.6v-29.7c0-3.7,2.2-5.4,5-3.8l27.2,15.7C126,390.8,128.3,395.2,128.3,398.8z" />
    <path fill="{}" d="M170.7,423.3V453c0,3.7-2.2,5.4-5,3.8l-27.2-15.7c-2.8-1.6-5-5.9-5-9.6v-29.7c0-3.7,2.2-5.4,5-3.8l27.2,15.8C168.5,415.3,170.7,419.7,170.7,423.3z" />
    <path fill="{}" d="M213.1,447.8v29.7c0,3.7-2.2,5.4-5,3.8l-27.2-15.7c-2.8-1.6-5-5.9-5-9.6v-29.6c0-3.7,2.2-5.4,5-3.8l27.2,15.7C210.9,439.8,213.1,444.2,213.1,447.8z" />


    <path fill="{}" d="M50.6,140.2l27.2-15.7c2.8-1.6,2.4-4.4-0.8-6.2l-25.7-14.8c-3.2-1.8-8-2-10.8-0.4l-27.2,15.7c-2.8,1.6-2.4,4.4,0.8,6.2l25.7,14.8C43,141.6,47.8,141.8,50.6,140.2z" />
    <path fill="{}" d="M93,115.7l27.2-15.7c2.8-1.6,2.4-4.4-0.8-6.2L93.7,79c-3.2-1.8-8-2-10.8-0.5L55.7,94.2c-2.8,1.6-2.4,4.4,0.8,6.2l25.7,14.8C85.4,117.1,90.2,117.3,93,115.7z" />
    <path fill="{}" d="M135.4,91.2l27.2-15.7c2.8-1.6,2.4-4.4-0.8-6.2l-25.7-14.8c-3.2-1.8-8-2-10.8-0.5L98.2,69.7c-2.8,1.6-2.4,4.4,0.8,6.2l25.7,14.9C127.8,92.6,132.7,92.8,135.4,91.2z" />
    <path fill="{}" d="M177.9,66.7L205.1,51c2.8-1.6,2.4-4.4-0.8-6.2l-25.7-14.8c-3.2-1.8-8-2-10.8-0.5l-27.2,15.7c-2.8,1.6-2.4,4.4,0.8,6.2l25.7,14.9C170.3,68.1,175.2,68.3,177.9,66.7z" />
    <path fill="{}" d="M219.3,42.2l27.2-15.7c2.8-1.6,2.4-4.4-0.8-6.2L220,5.4c-3.2-1.8-8-2-10.8-0.4L182,20.7c-2.8,1.6-2.4,4.4,0.8,6.2l25.7,14.9C211.7,43.6,216.5,43.7,219.3,42.2z" />

    <path fill="{}" d="M93,164.7l27.2-15.7c2.8-1.6,2.4-4.4-0.8-6.2l-25.7-14.8c-3.2-1.8-8-2-10.8-0.4l-27.2,15.7c-2.8,1.6-2.4,4.4,0.8,6.2l25.7,14.9C85.4,166.1,90.3,166.3,93,164.7z" />
    <path fill="{}" d="M135.5,140.2l27.2-15.7c2.8-1.6,2.4-4.4-0.8-6.2l-25.7-14.8c-3.2-1.8-8-2-10.8-0.4l-27.2,15.7c-2.8,1.6-2.4,4.4,0.8,6.2l25.7,14.8C127.9,141.6,132.7,141.8,135.5,140.2z" />
    <path fill="{}" d="M177.9,115.7l27.2-15.7c2.8-1.6,2.4-4.4-0.8-6.2l-25.7-14.8c-3.2-1.8-8-2-10.8-0.4l-27.2,15.7c-2.8,1.6-2.4,4.4,0.8,6.2l25.7,14.8C170.3,117.1,175.2,117.3,177.9,115.7z" />
    <path fill="{}" d="M220.4,91.2l27.2-15.7c2.8-1.6,2.4-4.4-0.8-6.2l-25.7-14.8c-3.2-1.8-8-2-10.8-0.4l-27.2,15.7c-2.8,1.6-2.4,4.4,0.8,6.2l25.7,14.8C212.8,92.6,217.6,92.8,220.4,91.2z" />
    <path fill="{}" d="M261.7,66.7L289,50.9c2.8-1.6,2.4-4.4-0.8-6.2l-25.7-14.8c-3.2-1.8-8-2-10.8-0.4l-27.2,15.7c-2.8,1.6-2.4,4.4,0.8,6.2L251,66.2C254.1,68.1,259,68.2,261.7,66.7z" />


    <path fill="{}" d="M135.5,189.2l27.2-15.7c2.8-1.6,2.4-4.4-0.8-6.2l-25.7-14.8c-3.2-1.8-8-2-10.8-0.4l-27.2,15.7c-2.8,1.6-2.4,4.4,0.8,6.2l25.7,14.9C127.9,190.6,132.7,190.8,135.5,189.2z" />
    <path fill="{}" d="M177.9,164.7l27.2-15.7c2.8-1.6,2.4-4.4-0.8-6.2l-25.7-14.8c-3.2-1.8-8-2-10.8-0.4l-27.2,15.7c-2.8,1.6-2.4,4.4,0.8,6.2l25.7,14.8C170.3,166.1,175.1,166.3,177.9,164.7z" />
    <path fill="{}" d="M220.3,140.2l27.2-15.7c2.8-1.6,2.4-4.4-0.8-6.2l-25.7-14.8c-3.2-1.8-8-2-10.8-0.5l-27.2,15.7c-2.8,1.6-2.4,4.4,0.8,6.2l25.7,14.9C212.7,141.6,217.6,141.8,220.3,140.2z" />
    <path fill="{}" d="M265,115.7l27.2-15.7c2.8-1.6,2.4-4.4-0.8-6.2l-25.7-14.8c-3.2-1.8-8-2-10.8-0.4l-27.2,15.7c-2.8,1.6-2.4,4.4,0.8,6.2l25.7,14.8C257.4,117.1,262.2,117.3,265,115.7z" />
    <path fill="{}" d="M306.3,91.2l27.2-15.7c2.8-1.6,2.4-4.4-0.8-6.2l-25.7-14.8c-3.2-1.8-8-2-10.8-0.5l-27.2,15.7c-2.8,1.6-2.4,4.4,0.8,6.2l25.7,14.8C298.7,92.6,303.6,92.7,306.3,91.2z" />

    <path fill="{}" d="M177.9,213.8l27.2-15.7c2.8-1.6,2.4-4.4-0.8-6.2L178.7,177c-3.2-1.8-8-2-10.8-0.4l-27.2,15.7c-2.8,1.6-2.4,4.4,0.8,6.2l25.7,14.8C170.3,215.1,175.2,215.3,177.9,213.8z" />
    <path fill="{}" d="M220.4,189.2l27.2-15.7c2.8-1.6,2.4-4.4-0.8-6.2l-25.7-14.8c-3.2-1.8-8-2-10.8-0.4l-27.2,15.7c-2.8,1.6-2.4,4.4,0.8,6.2l25.7,14.8C212.8,190.6,217.6,190.8,220.4,189.2z" />
    <path fill="{}" d="M262.8,164.8L290,149c2.8-1.6,2.4-4.4-0.8-6.2L263.5,128c-3.2-1.8-8-2-10.8-0.4l-27.2,15.7c-2.8,1.6-2.4,4.4,0.8,6.2l25.7,14.8C255.2,166.1,260,166.3,262.8,164.8z" />
    <path fill="{}" d="M307.5,140.3l27.2-15.8c2.8-1.6,2.4-4.4-0.8-6.2l-25.7-14.8c-3.2-1.8-8-2-10.8-0.5l-27.2,15.7c-2.8,1.6-2.4,4.4,0.8,6.2l25.7,14.8C299.9,141.6,304.7,141.8,307.5,140.3z" />
    <path fill="{}" d="M348.8,115.7L376,100c2.8-1.6,2.4-4.4-0.8-6.2l-25.7-14.8c-3.2-1.8-8-2-10.8-0.5l-27.2,15.7c-2.8,1.6-2.4,4.4,0.8,6.2l25.7,14.8C341.2,117.1,346,117.3,348.8,115.7z" />

    <path fill="{}" d="M220.4,238.3l27.2-15.7c2.8-1.6,2.4-4.4-0.8-6.2l-25.7-14.8c-3.2-1.8-8-2-10.8-0.4l-27.2,15.8c-2.8,1.6-2.4,4.4,0.8,6.2l25.7,14.8C212.8,239.7,217.6,239.9,220.4,238.3z" />
    <path fill="{}" d="M262.8,213.8l27.2-15.7c2.8-1.6,2.4-4.4-0.8-6.2L263.6,177c-3.2-1.8-8-2-10.8-0.4l-27.2,15.7c-2.8,1.6-2.4,4.4,0.8,6.2l25.7,14.8C255.2,215.2,260.1,215.4,262.8,213.8z" />
    <path fill="{}" d="M305.3,189.3l27.2-15.7c2.8-1.6,2.4-4.4-0.8-6.2L306,152.5c-3.2-1.8-8-2-10.8-0.4L268,167.8c-2.8,1.6-2.4,4.4,0.8,6.2l25.7,14.8C297.7,190.7,302.5,190.9,305.3,189.3z" />
    <path fill="{}" d="M349.9,164.7l27.2-15.7c2.8-1.6,2.4-4.4-0.8-6.2l-25.7-14.8c-3.2-1.8-8-2-10.8-0.4l-27.2,15.8c-2.8,1.6-2.4,4.4,0.8,6.2l25.7,14.8C342.3,166.1,347.2,166.3,349.9,164.7z" />
    <path fill="{}" d="M391.3,140.2l27.2-15.7c2.8-1.6,2.4-4.4-0.8-6.2L392,103.4c-3.2-1.8-8-2-10.8-0.4L354,118.7c-2.8,1.6-2.4,4.4,0.8,6.2l25.7,14.8C383.7,141.6,388.5,141.8,391.3,140.2z" />


    <path fill="{}" d="M218,252.8v29.7c0,3.7,2.2,5.4,5,3.8l27.2-15.7c2.8-1.6,5-5.9,5-9.6v-29.7c0-3.7-2.2-5.4-5-3.8L223,243.2C220.2,244.8,218,249.1,218,252.8z" />
    <path fill="{}" d="M260.4,228.3v29.7c0,3.7,2.3,5.4,5,3.8l27.2-15.7c2.8-1.6,5-5.9,5-9.6v-29.6c0-3.7-2.2-5.4-5-3.8l-27.2,15.7C262.7,220.3,260.4,224.6,260.4,228.3z" />
    <path fill="{}" d="M302.9,203.8v29.7c0,3.7,2.2,5.4,5,3.8l27.2-15.7c2.8-1.6,5-5.9,5-9.6v-29.7c0-3.7-2.2-5.4-5-3.8l-27.2,15.7C305.1,195.8,302.9,200.1,302.9,203.8z" />
    <path fill="{}" d="M344.9,179.8v29.7c0,3.7,2.2,5.4,5,3.8l27.2-15.7c2.8-1.6,5-5.9,5-9.6v-29.7c0-3.7-2.2-5.4-5-3.8l-27.2,15.7C347.2,171.8,344.9,176.1,344.9,179.8z" />
    <path fill="{}" d="M386.7,155.3V185c0,3.7,2.2,5.4,5,3.8l27.2-15.7c2.8-1.6,5-5.9,5-9.6v-29.7c0-3.7-2.2-5.4-5-3.8l-27.2,15.7C388.9,147.3,386.7,151.6,386.7,155.3z" />

    <path fill="{}" d="M218,301.8v29.7c0,3.7,2.2,5.4,5,3.8l27.2-15.7c2.8-1.6,5-5.9,5-9.6v-29.7c0-3.7-2.2-5.4-5-3.8L223,292.2C220.2,293.8,218,298.1,218,301.8z" />
    <path fill="{}" d="M260.4,277.3V307c0,3.7,2.3,5.4,5,3.8l27.2-15.7c2.8-1.6,5-5.9,5-9.6v-29.7c0-3.7-2.2-5.4-5-3.8l-27.2,15.7C262.7,269.3,260.4,273.6,260.4,277.3z" />
    <path fill="{}" d="M302.9,252.8v29.7c0,3.7,2.2,5.4,5,3.8l27.2-15.7c2.8-1.6,5-5.9,5-9.6v-29.7c0-3.7-2.2-5.4-5-3.8l-27.2,15.7C305.1,244.8,302.9,249.1,302.9,252.8z" />
    <path fill="{}" d="M344.9,228.8v29.7c0,3.7,2.2,5.4,5,3.8l27.2-15.7c2.8-1.6,5-5.9,5-9.6v-29.7c0-3.7-2.2-5.4-5-3.8l-27.2,15.7C347.2,220.8,344.9,225.1,344.9,228.8z" />
    <path fill="{}" d="M386.7,204.3V234c0,3.7,2.2,5.4,5,3.8l27.2-15.7c2.8-1.6,5-5.9,5-9.6v-29.7c0-3.7-2.2-5.4-5-3.8l-27.2,15.7C388.9,196.3,386.7,200.6,386.7,204.3z" />

    <path fill="{}" d="M218,350.8v29.7c0,3.7,2.2,5.4,5,3.8l27.2-15.7c2.8-1.6,5-5.9,5-9.6v-29.6c0-3.7-2.2-5.4-5-3.8L223,341.3C220.2,342.8,218,347.2,218,350.8z" />
    <path fill="{}" d="M260.4,326.3V356c0,3.7,2.3,5.4,5,3.8l27.2-15.7c2.8-1.6,5-5.9,5-9.6v-29.7c0-3.7-2.2-5.4-5-3.8l-27.2,15.8C262.7,318.3,260.4,322.7,260.4,326.3z" />
    <path fill="{}" d="M302.9,301.8v29.7c0,3.7,2.2,5.4,5,3.8l27.2-15.7c2.8-1.6,5-5.9,5-9.6v-29.6c0-3.7-2.2-5.4-5-3.8l-27.2,15.7C305.1,293.8,302.9,298.2,302.9,301.8z" />
    <path fill="{}" d="M344.9,277.8v29.7c0,3.7,2.2,5.4,5,3.8l27.2-15.7c2.8-1.6,5-5.9,5-9.6v-29.6c0-3.7-2.2-5.4-5-3.8l-27.2,15.7C347.2,269.9,344.9,274.2,344.9,277.8z" />
    <path fill="{}" d="M386.7,253.3V283c0,3.7,2.2,5.4,5,3.8l27.2-15.7c2.8-1.6,5-5.9,5-9.6v-29.6c0-3.7-2.2-5.4-5-3.8l-27.2,15.7C388.9,245.3,386.7,249.7,386.7,253.3z" />

    <path fill="{}" d="M218,398.8v29.7c0,3.7,2.2,5.4,5,3.8l27.2-15.7c2.8-1.6,5-5.9,5-9.6v-29.6c0-3.7-2.2-5.4-5-3.8L223,389.3C220.2,390.8,218,395.2,218,398.8z" />
    <path fill="{}" d="M260.4,374.3V404c0,3.7,2.3,5.4,5,3.8l27.2-15.7c2.8-1.6,5-5.9,5-9.6v-29.7c0-3.7-2.2-5.4-5-3.8l-27.2,15.8C262.7,366.3,260.4,370.7,260.4,374.3z" />
    <path fill="{}" d="M302.8,349.8v29.7c0,3.7,2.2,5.4,5,3.8l27.2-15.7c2.8-1.6,5-5.9,5-9.6v-29.6c0-3.7-2.2-5.4-5-3.8l-27.2,15.7C305.1,341.8,302.8,346.2,302.8,349.8z" />
    <path fill="{}" d="M344.9,325.8v29.7c0,3.7,2.2,5.4,5,3.8l27.2-15.7c2.8-1.6,5-5.9,5-9.6v-29.6c0-3.7-2.2-5.4-5-3.8l-27.2,15.7C347.2,317.9,344.9,322.2,344.9,325.8z" />
    <path fill="{}" d="M386.6,301.3V331c0,3.7,2.2,5.4,5,3.8l27.2-15.7c2.8-1.6,5-5.9,5-9.6v-29.6c0-3.7-2.2-5.4-5-3.8l-27.2,15.7C388.9,293.3,386.6,297.7,386.6,301.3z" />

    <path fill="{}" d="M218.5,448.8v29.7c0,3.7,2.2,5.4,5,3.8l27.2-15.7c2.8-1.6,5-5.9,5-9.6v-29.6c0-3.7-2.2-5.4-5-3.8l-27.2,15.7C220.8,440.8,218.5,445.1,218.5,448.8z" />
    <path fill="{}" d="M260.9,424.3V454c0,3.7,2.3,5.4,5,3.8l27.2-15.7c2.8-1.6,5-5.9,5-9.6v-29.7c0-3.7-2.2-5.4-5-3.8l-27.2,15.8C263.2,416.3,260.9,420.6,260.9,424.3z" />
    <path fill="{}" d="M303.4,399.8v29.7c0,3.7,2.2,5.4,5,3.8l27.2-15.7c2.8-1.6,5-5.9,5-9.6v-29.6c0-3.7-2.2-5.4-5-3.8l-27.2,15.7C305.6,391.8,303.4,396.1,303.4,399.8z" />
    <path fill="{}" d="M345.4,375.8v29.7c0,3.7,2.2,5.4,5,3.8l27.2-15.7c2.8-1.6,5-5.9,5-9.6v-29.6c0-3.7-2.2-5.4-5-3.8l-27.2,15.7C347.7,367.9,345.4,372.2,345.4,375.8z" />
    <path fill="{}" d="M387.2,351.3V381c0,3.7,2.2,5.4,5,3.8l27.2-15.7c2.8-1.6,5-5.9,5-9.6v-29.6c0-3.7-2.2-5.4-5-3.8l-27.2,15.7C389.4,343.3,387.2,347.7,387.2,351.3z" />
</svg>
