<svg xmlns="http://www.w3.org/2000/svg" viewBox="0 0 332.6 409.79">
    <path d="M330.04,219.02c0,0,5.77,2.87,0,13.49c-5.77,10.62-101.2,172.77-101.2,172.77s-4.53,10.14-15.33,0C202.71,395.14,2.51,257.09,2.51,257.09s-5.06-3.6-0.81-8.24L170.81,3.66c0,0,6.01-8.24,13.75,0C192.27,11.89,330.04,219.02,330.04,219.02z" />

    <path fill="{}" d="M10.42,250.34l32.57-51.12c0,0,3.26-3.76,3.76,1.75c0.5,5.51,6.26,78.43,6.26,78.43s0.25,3.26-4.51,2s-38.09-26.06-38.09-26.06S6.91,252.09,10.42,250.34z" />
    <path fill="{}" d="M55.65,196.58l6.89,79.79c0,0,2.43,11.34,7.49,0c5.06-11.34,35.44-48.6,35.44-48.6s5.06-5.27,0-9.32c-5.06-4.05-44.35-25.31-44.35-25.31S54.99,188.89,55.65,196.58z" />
    <path fill="{}" d="M72.55,289.71l38-49.88c0,0,5.98-6.06,6.75,1.85c0.77,7.91,7.52,86.04,7.52,86.04s2.51,6.94-5.79,3.86S72.55,298.2,72.55,298.2S66.76,294.53,72.55,289.71z" />
    <path fill="{}" d="M127.34,235.5l7.91,88.74c0,0,2.12,10.8,7.72,1.16c5.59-9.65,44.37-52.67,44.37-52.67s4.24-4.44,0-7.91s-52.09-29.32-52.09-29.32S128.3,229.91,127.34,235.5z" />
    <path fill="{}" d="M148.37,341.61l44.18-53.63c0,0,3.28-3.86,6.17,0c2.89,3.86,11.77,98.96,11.77,98.96s1.54,7.72-7.91,2.31c-9.45-5.4-53.05-35.69-53.05-35.69S142.57,348.64,148.37,341.61z" />

    <path fill="{}" d="M114.16,200.01l-9.03-84.41c0,0-2.08-6.06-5.49,0s-38.07,56.06-38.07,56.06s-4.55,8.33,0,7.95c4.55-0.38,46.15,23.67,46.15,23.67S115.99,205.44,114.16,200.01z" />
    <path fill="{}" d="M114.4,111.39l8.65,85c0,0,3.46,8.15,6.18,0c2.72-8.15,42.01-57.08,42.01-57.08s4.69-5.44,0-9.64c-4.69-4.2-50.41-21.5-50.41-21.5S112.67,106.2,114.4,111.39z" />
    <path fill="{}" d="M136,209.17l45.45-60.04c0,0,3.98-2.08,4.92,1.89c0.95,3.98,10.98,93.18,10.98,93.18s1.33,4.92-5.87,3.41c-7.2-1.52-55.49-29.36-55.49-29.36S131.01,215.75,136,209.17z" />

    <path fill="{}" d="M121.32,91.62l54.36,19.52c0,0,5.68,0.99,5.44-3.33c-0.25-4.33-10.63-87.85-10.63-87.85s-3.46-4.94-7.66,0c-4.2,4.94-41.51,61.78-41.51,61.78S115.81,89.64,121.32,91.62z" />


    <path fill="{}" d="M226.71,385.61l-9.36-94.05c0,0,2.23-6.02,5.79-1.56s37.22,45.02,37.22,45.02s3.34,6.02,0,8.25c-3.34,2.23-25.18,44.8-25.18,44.8S228.37,402.3,226.71,385.61z" />
    <path fill="{}" d="M222.48,274.18l35.88,42.57c0,0,5.13,6.91,5.13-2.01c0-8.91-9.81-89.82-9.81-89.82s0.22-7.35-6.46,1.56c-6.69,8.91-24.74,35.44-24.74,35.44S216.68,269.94,222.48,274.18z" />
    <path fill="{}" d="M258.78,231.4c0,0-3.14-16.24,4.71-3.94c7.85,12.3,30.37,44.08,30.37,44.08s4.16,2.55,1.15,8.12c-3.02,5.57-19.72,37.82-19.72,37.82s-4.87,8.58-5.57-3.02S258.78,231.4,258.78,231.4z" />
    <path fill="{}" d="M260.81,206.2l24.52-32.09c0,0,3.57-6.69,3.79,4.68s8.02,75.11,8.02,75.11s2.45,11.37-4.68,2.01c-7.13-9.36-30.61-40.03-30.61-40.03S255.69,210.66,260.81,206.2z" />
    <path fill="{}" d="M293.96,180.72l9.91,77.35c0,0,0.19,9.15,5.91,0c5.72-9.15,13.91-28.39,13.91-28.39s3.05-4.55,0-7.61c-3.05-3.06-26.13-41.35-26.13-41.35S293.14,174.27,293.96,180.72z" />

    <path fill="{}" d="M217.35,247.9l28.97-38.81c0,0,3.86-3.86-1.16-7.72c-5.02-3.86-38.42-49.43-38.42-49.43s-5.41-7.27-4.44,1.97c0.97,9.23,10.04,89.75,10.04,89.75S212.68,254.16,217.35,247.9z" />
    <path fill="{}" d="M204.43,134.22l39.23,54.6c0,0,5.35,8.91,4.23,0c-1.11-8.91-8.69-84.47-8.69-84.47s0.22-9.36-10.25,0c-10.47,9.36-22.73,24.74-22.73,24.74S201.75,132.88,204.43,134.22z" />
    <path fill="{}" d="M244,109.66l9.46,81.29c0,0,0.39,12.94,6.18,1.84s21.43-31.38,21.43-31.38s3.86-2.7-1.74-8.88s-29.93-44.72-29.93-44.72S243.62,98.46,244,109.66z" />

    <path fill="{}" d="M186.37,21.67l9.81,85.14c0,0,1.11,12.43,8.25,4.43c7.13-8,23.18-26.94,23.18-26.94s5.35-3.57,0-8.69c-5.35-5.13-34.99-53.93-34.99-53.93S185.04,10.05,186.37,21.67z" />
</svg>
