<svg xmlns="http://www.w3.org/2000/svg" viewBox="0 0 312.77 333.22">
    <path d="M0.11,44.38l16.86,180.42c0,0-1.16,4.07,3.68,10.08s81.2,95.73,81.2,95.73s3.29,4.46,11.63,1.74c8.33-2.71,181.58-57.94,181.58-57.94s2.71-1.55,2.71-8.33c0-6.78,14.92-195.53,14.92-195.53s0.97-6.98-3.68-9.69C304.35,58.14,191.57,0,191.57,0s-0.97-1.16-6.78,0C178.97,1.16,8.05,30.62,8.05,30.62S-1.09,31.61,0.11,44.38z" />

    <path fill="{}" d="M4.54,45.14l4.73,63.07c0,0-0.21,3.22,2.69,4.94s21.38,19.34,21.38,19.34s3.98,4.62,2.47-5.37c-1.5-9.99-3.76-62.21-3.76-62.21s0.54-2.79-1.4-4.62C28.71,58.46,6.26,41.81,6.26,41.81S4.05,38.6,4.54,45.14z" />
    <path fill="{}" d="M34.76,67.41l3.98,64.24c0,0-0.44,6.72,5.49,10.79s14.33,13.63,14.33,13.63s3.27,2.39,3.01-2.21c-0.27-4.6-3.19-69.1-3.19-69.1s0.09-3.45-2.74-4.96c-2.83-1.5-18.85-14-18.85-14S34.5,63.27,34.76,67.41z" />
    <path fill="{}" d="M61.07,89.66l2.66,62.49c0,0,0.56,10.35,3.78,13.16c3.22,2.81,29.56,28.03,29.56,28.03s3.78,4.62,3.64-0.98c-0.14-5.6-2.1-75.8-2.1-75.8s-0.42-3.64-4.34-6.45c-3.92-2.8-30.54-23.68-30.54-23.68S60.78,82.93,61.07,89.66z" />
    <path fill="{}" d="M11.04,120.79l4.17,41.71c0,0,0,4.24,2.89,6.94c4.73,4.42,78.09,78.26,78.09,78.26s2.93,2.93,3.03-2.02c0.1-4.94,0-43.48,0-43.48s0.1-2.93-2.32-5.45c-2.42-2.52-83.33-75.97-83.33-75.97S10.91,118.78,11.04,120.79z" />
    <path fill="{}" d="M16.49,173.25l4.2,52.5c0,0-0.47,3.27,2.68,5.83C26.53,234.15,43,254.53,43,254.53s1.19,1.65,0.84-3.02s-1.68-50.62-1.68-50.62s0-1.98-2.45-4.78s-22.05-22.87-22.05-22.87S16.38,171.86,16.49,173.25z" />
    <path fill="{}" d="M45.08,208.06c0,0-0.5-6.19,2.23-3.34c2.72,2.85,16.96,17.46,16.96,17.46s2.35,2.6,1.86,8.42c-0.5,5.82,1.98,52,1.98,52s1.11,4.33-4.09-2.6c-5.2-6.93-15.1-17.95-15.1-17.95s-1.73-1.94-1.98-7.22C46.69,249.53,45.08,208.06,45.08,208.06z" />
    <path fill="{}" d="M68.85,233.07l2.23,52.74c0,0,0,2.6,2.85,6.19c2.85,3.59,28.6,33.92,28.6,33.92s2.1,2.85,2.1-3.1c0-5.94-2.72-58.81-2.72-58.81s0.12-2.35-3.71-6.81c-3.84-4.46-25.5-26.12-25.5-26.12S68.56,226.28,68.85,233.07z" />


    <path fill="{}" d="M129.81,48.75l-91.48,7.6c0,0-2.46,0.89-7.15-2.9S10.07,36.14,10.07,36.14s-2.01-1.45,3.13-2.12c5.14-0.67,59.32-10.17,59.32-10.17s2.79-0.11,5.03,0.89c2.23,1.01,54.07,20.56,54.07,20.56S137.5,48.12,129.81,48.75z" />
    <path fill="{}" d="M87.31,22.92l34.02-6.27c0,0,2.32-0.56,3.1,0.85S139.15,38,139.15,38s2.96,3.52-2.32,2.25c-5.28-1.27-50.85-15.85-50.85-15.85S82.7,23.77,87.31,22.92z" />
    <path fill="{}" d="M129.02,15.25l18.86,25.39c0,0,8.2,3.91,17.87,0.88c8.74-2.74,48.39-16.34,55.9-18.91c0.79-0.27,0.13-1.01,0.13-1.01L190.84,5.1c0,0-2.93-1.76-11.13,0c-7.14,1.53-40.96,7.21-49.56,8.65C128.87,13.96,129.02,15.25,129.02,15.25z" />
    <path fill="{}" d="M38.88,62.12l21.43,15.2c0,0,1.08,0.96,4.79-0.72c3.71-1.68,61.18-19.63,61.18-19.63s5.39-2.99-3.11-2.99s-79.25,6.23-79.25,6.23S36.89,60.71,38.88,62.12z" />
    <path fill="{}" d="M226.72,25.9l-49.66,16.77c0,0-5.81,2.36,1.37,2.04c7.18-0.32,74.8-6.66,74.8-6.66s3.06,0.21-1.06-1.8c-4.12-2.01-20.71-10.35-20.71-10.35S231.09,24.43,226.72,25.9z" />
    <path fill="{}" d="M168.61,52.85l65.2,22.7c0,0,2.8,1.4,12.33-1.31c9.53-2.71,53.89-11.12,53.89-11.12s2.99-0.47-0.37-2.34c-3.36-1.87-37.45-19.9-37.45-19.9s-5.98-1.12-10.46-0.47s-79.67,8.59-79.67,8.59S161.67,50.43,168.61,52.85z" />
    <path fill="{}" d="M182.3,88.94l-22.39-28.13c0,0,1.68-5.15,8.74-3.47s58.54,19.99,58.54,19.99s5.63,1.56,0.6,2.87s-41.54,10.3-41.54,10.3S182.9,91.93,182.3,88.94z" />
    <path fill="{}" d="M66.31,83.03l31.93,24.55c0,0,1.63,1.79,7.61,0.47s69.29-15.77,69.29-15.77s2.41-0.16,0.62-2.72S153,57.63,153,57.63s-7.92-4.51-18.33-0.54S69.19,80,69.19,80S63.75,81.63,66.31,83.03z" />


    <path fill="{}" d="M102.64,119.9l2.12,73.57c0,0-0.33,2.68,6.7,1l57.96-15.45c0,0,9.89-3.73,9.54-15.97c-0.35-12.23,0.01-59.79,0.01-59.79s-0.15-4.56-8.51-2.76s-62.34,14.31-62.34,14.31S102.52,115.8,102.64,119.9z" />
    <path fill="{}" d="M183.39,98.66l-0.78,66.65c0,0,1.3,9.23,12.1,6.88c10.8-2.34,30.58-8.33,30.58-8.33s7.29-3.25,7.55-11.45c0.26-8.2,2.86-62.99,2.86-62.99s0-5.73-4.42-4.82s-45.16,11.32-45.16,11.32S183.41,96.71,183.39,98.66z" />
    <path fill="{}" d="M239.87,85.26l-2.99,66.89c0,0-0.65,9.11,12.62,5.73c13.27-3.38,50.63-13.01,50.63-13.01s3.12,0.26,3.12-6.51s4.69-66.37,4.69-66.37s0-4.29-5.99-2.73c-5.99,1.56-59.09,13.4-59.09,13.4S239.97,83.17,239.87,85.26z" />
    <path fill="{}" d="M104.63,204.45c0,0-0.65-3.96,4.56-4.59c5.21-0.63,60.03-15.64,60.03-15.64s8.75-1.25,9.17,5.53v34.39c0,0,0.31,8.65-8.02,12.3c-8.34,3.65-59.61,18.55-59.61,18.55s-6,2.4-6.13-4.69C104.5,243.22,104.63,204.45,104.63,204.45z" />
    <path fill="{}" d="M193.3,177.25l106.79-28.73c0,0,2.25-0.78,2.05,3.91c-0.2,4.69-3.52,43.97-3.52,43.97s0,4.98-8.21,6.25s-96.44,27.94-96.44,27.94s-11.14,2.54-11.14-6.94c0-9.48-0.24-36.15-0.24-36.15S183.6,179.86,193.3,177.25z" />
    <path fill="{}" d="M106.26,265.89l1.22,60.72c0,0-1.11,3.45,8.88,0.89c9.99-2.55,58.72-19.54,58.72-19.54s4.06-0.44,3.31-7.22c-0.76-6.77,0-52.95,0-52.95s0.47-5.55-8.42-4.66s-58.06,16.54-58.06,16.54S106.17,261.22,106.26,265.89z" />
    <path fill="{}" d="M182.61,244.57l-1.2,57.17c0,0-0.67,3.66,6.66,1.33c7.33-2.33,36.74-11.43,36.74-11.43s2.44-0.82,2.44-5.9c0-5.09,2.44-52.38,2.44-52.38s-0.33-7.22-6.99-5.33c-6.66,1.89-35.08,9.55-35.08,9.55S182.72,239.03,182.61,244.57z" />
    <path fill="{}" d="M233.81,232.47l-3.22,54.73c0,0-1,4.66,6.77,1.11s53.73-16.43,53.73-16.43s2.55-0.56,2.66-5.44c0.11-4.88,4.88-56.84,4.88-56.84s0.22-3.44-5.55-1.55s-50.7,15.54-50.7,15.54S234.19,225.93,233.81,232.47z" />
</svg>
